<svg version="1.2" xmlns="http://www.w3.org/2000/svg" viewBox="0 0 1018 1018" width="1018" height="1018"><style>.a{fill:#f0f0f0}.b{fill:#e6e6e6}.c{fill:#f2f2f2}.d{fill:#ffb6b6}.e{fill:#2f2e41}.f{fill:#92c7d3}</style><path class="a" d="m339.1 862.8q-46.6 0-93.1-1.4c-44.2-1.4-90-2.8-132.5-23.3-29.8-14.3-56.2-37.3-76.3-66.5q-4.9-7.3-9.3-14.9-4.3-7.7-8-15.7-3.6-8-6.6-16.2-3-8.3-5.3-16.8-1.1-4.1-2.1-8.2-0.9-4.2-1.7-8.3-0.8-4.2-1.5-8.4-0.6-4.2-1.1-8.4-1.4-11.4-1.6-22.8-0.2-11.4 0.8-22.8 0.9-11.4 3-22.7 2.1-11.2 5.3-22.2 1.6-5.2 3.4-10.4 1.9-5.2 4-10.2 2.1-5.1 4.5-10 2.4-5 5.1-9.8c31-55.8 87.6-93.2 155.2-102.7q0.2-0.1 0.5-0.1 0.2 0 0.4 0 0.2 0 0.4 0 0.2 0 0.4 0 0.5 0.1 0.9 0l0.4-0.1q0.4-0.1 0.8-0.2 0.4-0.1 0.8-0.2 0.4-0.1 0.8-0.1 0.4-0.1 0.8-0.2c104.3-13.4 214.6 13.8 318.9 79 80.6 50.3 187.5 77.4 326.7 82.8l2 0.1c38.8 2 76.2 15.8 108.4 40.2 7.8 5.8 15.2 12.2 22.1 19.1 6.9 7 13.3 14.4 19.1 22.2 5.8 7.8 11.1 16.1 15.7 24.6 4.7 8.6 8.7 17.5 12.1 26.7 1.6 4.4 3.1 9.1 4.4 13.8 2.6 8.9-0.4 17.8-7.9 24.7l-0.4 0.3q-1.2 1.1-2.6 2.1l-1.1 0.7c-8.9 6.4-15.9 11.4-24.3 15.3q-2.1 1-4.3 1.8-2.2 0.9-4.4 1.6-2.2 0.8-4.5 1.4-2.3 0.6-4.5 1c-34 7.2-68.4 13.9-102.5 19.8-66 11.6-133.8 21.1-201.5 28.4q-39.8 4.3-79.8 7.5-39.9 3.2-79.9 5.3-40 2.1-80 3.2-40.1 1.1-80.1 1zm-156.9-419.8q0 0-0.1 0-0.1 0-0.2 0-0.1 0-0.1 0-0.1 0-0.2 0c-67 9.5-123 46.5-153.8 101.8q-2.6 4.7-5 9.6-2.3 4.9-4.5 9.9-2.1 5-3.9 10.2-1.8 5.1-3.4 10.3-3.2 10.9-5.2 22-2.1 11.2-3 22.5-1 11.2-0.8 22.6 0.2 11.3 1.6 22.6 0.5 4.1 1.1 8.3 0.6 4.2 1.4 8.3 0.8 4.1 1.8 8.2 0.9 4.1 2.1 8.2 2.2 8.4 5.2 16.6 2.9 8.2 6.5 16.1 3.7 7.9 8 15.5 4.3 7.6 9.2 14.8c19.9 28.9 46 51.6 75.4 65.8 42.2 20.3 87.7 21.7 131.8 23.1q51.6 1.6 103.3 1.4 51.6-0.1 103.2-2.1 51.7-1.9 103.2-5.7 51.5-3.7 102.9-9.2c67.6-7.2 135.4-16.8 201.4-28.3 34-6 68.4-12.6 102.3-19.8q2.3-0.5 4.5-1.1 2.2-0.6 4.4-1.3 2.1-0.7 4.3-1.5 2.1-0.9 4.2-1.8c8.2-3.8 15.2-8.8 24-15.1l1-0.8q1.2-0.8 2.3-1.7l0.2-0.2c7.2-6.4 10.1-14.7 7.7-23-1.3-4.6-2.8-9.2-4.4-13.6-27.3-74.8-97.8-127.6-175.6-131.5l-2-0.1c-63.6-2.4-119.2-9.3-170.1-21-60.7-13.9-113.8-34.8-157.6-62.2-103.9-64.8-213.7-92-317.6-78.6q-0.3 0.1-0.7 0.1-0.4 0.1-0.7 0.2-0.4 0.1-0.7 0.2-0.4 0.1-0.7 0.2l-0.7 0.1q-0.7 0.1-1.3 0-0.3 0-0.7 0z"/><path class="b" d="m1008 772.9q-1.3 1.1-2.6 2c-14.7 10.5-24.7 17.9-42.8 21.7q-51 10.8-102.3 19.8-100.2 17.6-201.5 28.4-51.4 5.5-102.9 9.2-51.6 3.8-103.2 5.7-51.7 2-103.3 2.1-51.7 0.2-103.3-1.4c-45.9-1.4-90.2-3-132.2-23.2-30.7-14.8-56.6-38.2-75.8-66.2-19.6-28.3-31.5-61.9-35.5-96.4q3.5-1.6 7.2-2.8 3.7-1.3 7.4-2.3 3.8-1 7.6-1.6 3.9-0.7 7.7-1.1c35.9-3.4 71.2 9.7 103.9 25 32.6 15.3 64.6 33.1 100 40.2 52.1 10.4 105.8-3.8 155.8-21.8 49.9-18.1 99-40.5 151.7-47.3 70.6-9.2 141.5 10.2 210.1 29.5q109.6 30.7 219.1 61.4c10.5 2.9 21.3 6 29.4 13.2q0.8 0.7 1.5 1.4 0.7 0.7 1.4 1.4 0.7 0.8 1.3 1.5 0.7 0.8 1.3 1.6z"/><path class="c" d="m1008 772.9q-1.3 1.1-2.6 2c-9.2 6.6-16.6 12-25.2 16q-44.7 4.4-89.4 7.6-115.3 8.3-231 8.8c-156.5 0.8-321 5.7-458-70.3-45.5-25.3-111.6 26.6-156.7-1.2q-4.9-3-9.6-6.2-4.7-3.3-9.3-6.8-4.5-3.5-8.8-7.3-4.3-3.8-8.4-7.8-1.1-4-2.1-8.2-0.9-4.1-1.7-8.2-0.8-4.2-1.5-8.3-0.6-4.2-1.1-8.4-1.4-11.3-1.6-22.7-0.2-11.4 0.7-22.7 1-11.4 3.1-22.6 2.1-11.2 5.3-22.1 1.5-5.2 3.4-10.4 1.8-5.1 3.9-10.2 2.1-5 4.5-9.9 2.4-4.9 5.1-9.7c20.9 7.5 41.1 18.4 60.2 29.9 35.1 21 69.3 44.9 108.4 56.9 57.6 17.8 120 8 178.5-6.7 58.5-14.7 116.6-34.2 176.9-35.9 80.9-2.2 158.7 27.9 234 57.6q113.2 44.5 226.5 89.1 2.5 6.8 4.5 13.8c2.7 9.4-1.2 18-8 23.9z"/><path class="b" d="m271.7 389c-11.3-7.6-10.2-24.4 1.8-31q0.4-0.2 0.7-0.4 0.9-4.4 1.8-8.7c3.6 3.7 10.5 3 13.3-1.3q-3.6-7.7-7.8-15-4.1-7.4-8.8-14.4-4.7-7.1-9.9-13.7-5.2-6.7-10.9-13c-1.7-1.8-3-3.9-3.9-6.2-0.8-2.2-1.3-4.7-1.3-7.1-0.1-2.5 0.3-4.9 1.2-7.2 0.8-2.3 2.1-4.4 3.7-6.3q0.1-0.1 0.2-0.2 3.2-1.1 6.3-2.4 3.1-1.3 6.2-2.8 3-1.6 5.9-3.3 2.9-1.7 5.7-3.7c-25.5-40.9-74.1-73.5-85.6-120.3-34.8 37.3-38.7 50.5-73.4 87.8 0 0-33 29.7-40.1 45.7 1.8 1.8 17.4 6.2 18 9.8 11.9 0.9 32.6-12.1 32.6-12.1 0 0-45.1 48-58.8 77.6-1.2 2.7-2.4 5.7-1.3 8.5 0.8 2.2 3.7 3.4 5.6 2.6q-0.8 0.8-1.6 1.7-0.7 0.9-1.4 1.8-0.7 1-1.3 2-0.6 1.1-1 2.2c1.9 1.2 4.1 2.1 6.4 2.7 2.3 0.5 4.6 0.7 6.9 0.4 2.4-0.2 4.6-0.8 6.8-1.8 2.1-1 4-2.3 5.7-3.9q-2.9 5.3-5.7 10.6c2.6 0.9 4.9 2.4 6.7 4.4 1.8 2 3.1 4.4 3.7 7.1 0.5 2.6 0.4 5.4-0.4 8-0.8 2.6-2.3 4.9-4.2 6.7-11.9 11-22.7 22.6-26.6 30.2-3.8 7.2 34.5 15.8 43.1 15.4 8.6-0.3 16.6-4.1 24.4-7.8q-0.1 1.3-0.1 2.7 0.1 1.3 0.3 2.6 0.3 1.3 0.7 2.5 0.4 1.3 1 2.5 3.2 0.8 6.5 0.9 3.3 0.1 6.5-0.4 3.3-0.5 6.4-1.7 3-1.1 5.8-2.9c-0.3 7.1 8.6 11 14.8 9-3.1 49-0.8 117.8 2.2 189.2h7.3v-186.4q0.8 0.4 1.5 0.7 0.8 0.3 1.6 0.6 0.8 0.3 1.6 0.5 0.8 0.2 1.6 0.3c15.1 2.7 33.3 4.3 43.1-7.5 11.3 11.4 32.1 11.2 43.3-0.1-1.1 1.9 0.6 5.2 3.1 5.7 3 0.6 5.8-1.1 8.3-2.8q17.1-11.4 34.1-22.7c-14-9.5-33.9-22.9-52.3-35.3z"/><path fill-rule="evenodd" class="c" d="m612.4 366.2c-19.7 0-35.6-15.9-35.6-35.6 0-19.7 15.9-35.7 35.6-35.7 19.7 0 35.7 16 35.7 35.7 0 19.7-16 35.6-35.7 35.6z"/><path class="b" d="m692.2 313.7c-2.1-6.9-7.9-11.4-14.9-12.4q-0.1 0-0.3 0 0 0 0 0-0.1 0-0.1 0 0 0-0.1 0 0-0.1-0.1-0.1-3.7-0.4-7.4-0.2-3.7 0.1-7.4 0.9-3.6 0.8-7.1 2.2-3.5 1.4-6.7 3.4c-8.2 5.1-17.8 7.4-27.6 7.8q0 0-0.1 0-2.7 0.2-5.3 1.2-2.5 1-4.6 2.7-2.1 1.7-3.6 4-1.5 2.2-2.3 4.8-0.1 0.4 0 0.7 0 0.3 0.1 0.6 0.1 0.3 0.3 0.6 0.3 0.2 0.5 0.4 0.4 0.3 0.9 0.6 0.4 0.3 0.9 0.6 0.5 0.2 1 0.4 0.5 0.2 1 0.3 4.4 0.9 8.9 1.7 8.7 1.5 17.5 2.5 4.5 0.5 9 0.8 4.5 0.3 9 0.5 4.5 0.1 9 0.2 4.5 0 8.9-0.2c4-0.1 7.9-0.2 11.6-2q1-0.5 1.9-1.1 0.9-0.6 1.7-1.3 0.9-0.8 1.6-1.6 0.7-0.8 1.4-1.7 1.1-1.8 1.9-3.8 0.8-2 1.1-4.1 0.3-2.1 0.1-4.2-0.1-2.1-0.7-4.2z"/><path class="b" d="m618.1 361.2c-2-6.9-7.9-11.4-14.9-12.4q-0.1 0-0.2 0-0.1 0-0.1 0 0 0-0.1 0 0 0-0.1 0 0 0 0 0-3.7-0.5-7.5-0.3-3.7 0.2-7.4 1-3.6 0.7-7.1 2.1-3.5 1.4-6.7 3.4c-8.2 5.1-17.8 7.5-27.5 7.8q-0.1 0.1-0.2 0.1-2.7 0.1-5.2 1.1-2.6 1-4.7 2.7-2.1 1.7-3.6 4-1.5 2.2-2.3 4.9 0 0.3 0 0.6 0 0.3 0.1 0.6 0.2 0.3 0.4 0.6 0.2 0.2 0.5 0.4 0.4 0.4 0.8 0.6 0.4 0.3 0.9 0.6 0.5 0.2 1 0.4 0.5 0.2 1 0.3 4.4 0.9 8.9 1.7 8.7 1.6 17.5 2.5 4.5 0.5 9 0.8 4.5 0.3 9 0.5 4.5 0.2 9 0.2 4.5 0 9-0.1c4-0.2 7.8-0.3 11.5-2.1q1-0.5 1.9-1.1 0.9-0.6 1.8-1.3 0.8-0.7 1.5-1.6 0.8-0.8 1.4-1.7 1.2-1.8 1.9-3.8 0.8-2 1.1-4.1 0.3-2.1 0.2-4.2-0.2-2.1-0.8-4.2z"/><path class="b" d="m919.7 510c-11.3-7.6-10.2-24.4 1.8-31q0.4-0.2 0.7-0.4 0.9-4.4 1.8-8.7c3.6 3.7 10.5 3 13.3-1.3q-3.6-7.7-7.8-15-4.1-7.4-8.8-14.4-4.7-7.1-9.9-13.7-5.2-6.7-10.9-13c-1.7-1.8-3-3.9-3.9-6.2-0.8-2.2-1.3-4.7-1.3-7.1-0.1-2.5 0.3-4.9 1.2-7.2 0.8-2.3 2.1-4.4 3.7-6.3q0.1-0.1 0.2-0.2 3.2-1.1 6.3-2.4 3.1-1.3 6.2-2.8 3-1.6 5.9-3.3 2.9-1.7 5.7-3.7c-25.5-40.9-74.1-73.5-85.6-120.3-34.8 37.3-38.7 50.5-73.4 87.8 0 0-33 29.7-40.1 45.7 1.8 1.8 17.4 6.2 18 9.8 11.9 0.9 32.6-12.1 32.6-12.1 0 0-45.1 48-58.8 77.6-1.2 2.7-2.4 5.7-1.3 8.5 0.8 2.2 3.7 3.4 5.6 2.6q-0.8 0.8-1.6 1.7-0.7 0.9-1.4 1.8-0.7 1-1.3 2-0.6 1.1-1 2.2c1.9 1.2 4.1 2.1 6.4 2.7 2.3 0.5 4.6 0.7 6.9 0.4 2.4-0.2 4.6-0.8 6.8-1.8 2.1-1 4-2.3 5.7-3.9q-2.9 5.3-5.7 10.6c2.6 0.9 4.9 2.4 6.7 4.4 1.8 2 3.1 4.4 3.7 7.1 0.5 2.6 0.4 5.4-0.4 8-0.8 2.6-2.3 4.9-4.2 6.7-11.9 11-22.7 22.6-26.6 30.2-3.8 7.2 34.5 15.8 43.1 15.4 8.6-0.3 16.6-4.1 24.4-7.8q-0.1 1.3-0.1 2.7 0.1 1.3 0.3 2.6 0.3 1.3 0.7 2.5 0.4 1.3 1 2.5 3.2 0.8 6.5 0.9 3.3 0.1 6.5-0.4 3.3-0.5 6.4-1.7 3-1.1 5.8-2.9c-0.3 7.1 8.6 11 14.8 9-3.1 49-0.8 117.8 2.2 189.2h7.3v-186.4q0.8 0.4 1.5 0.7 0.8 0.3 1.6 0.6 0.8 0.3 1.6 0.5 0.8 0.2 1.6 0.3c15.1 2.7 33.3 4.3 43.1-7.5 11.3 11.4 32.1 11.2 43.3-0.1-1.1 1.9 0.6 5.2 3.1 5.7 3 0.6 5.8-1.1 8.3-2.8q17.1-11.4 34.1-22.7c-14-9.5-33.9-22.9-52.3-35.3z"/><path class="b" d="m63 700c0.7 0.1 1.4-0.1 2.1-0.5 0.6-0.4 1.1-1 1.4-1.7 0.3-0.7 0.3-1.4 0.2-2.2-0.2-0.7-0.6-1.3-1.1-1.8-0.1-0.4-0.2-0.7-0.3-1q0.1-0.1 0.1-0.3c0.8-1.7 2-3.2 3.6-4.3 1.6-1 3.5-1.6 5.4-1.6 1.9 0 3.8 0.6 5.4 1.7 1.6 1 2.8 2.5 3.5 4.3 3 7.1 6.7 14.1 7.6 21.6q0.2 1.2 0.2 2.4 0 1.3 0 2.5-0.1 1.3-0.2 2.5-0.2 1.2-0.5 2.4 2.6-5.6 4.5-11.4 2-5.9 3.3-11.9 1.3-6 2-12.2 0.7-6.1 0.7-12.3 0-1.5-0.1-3.1 0-1.5-0.1-3.1-0.1-1.5-0.2-3.1-0.1-1.5-0.3-3-0.6-5.1-1.6-10.1-1.4-6.7-3.5-13.3-2.2-6.5-5.1-12.7-2.9-6.3-6.6-12.1-3.6-5.9-7.9-11.2-2.1-1.2-3.9-2.6-1.9-1.4-3.6-3.1-1.6-1.7-3-3.7-1.3-1.9-2.4-4-0.4-0.8-0.7-1.6-0.3-0.7-0.6-1.6-0.2-0.8-0.5-1.6-0.2-0.8-0.3-1.7 0.9 0.2 1.9 0.2 0.3 0 0.6 0c0.7 0.1 1.4-0.1 2-0.4 0.6-0.4 1.1-0.9 1.4-1.5 0.3-0.6 0.4-1.3 0.4-2-0.1-0.7-0.4-1.4-0.8-1.9q-0.4-0.5-0.8-1-0.7-0.8-1.3-1.5 0 0 0-0.1 0 0 0 0-0.1 0-0.1 0 0-0.1 0-0.1-0.7-0.8-1.4-1.7 0.3-0.5 0.7-1 0.4-0.4 0.8-0.9 0.4-0.4 0.9-0.7 0.5-0.4 1-0.7c4.7-2.8 11.2-0.9 14.7 3.4 3.4 4.3 4.1 10.3 2.9 15.7q-0.5 1.7-1.1 3.4-0.5 1.6-1.3 3.2-0.7 1.6-1.5 3.2-0.9 1.5-1.9 3 0.4 0.5 0.8 1 1.8 2.2 3.4 4.6 1.7 2.3 3.2 4.8 1.5 2.4 2.9 4.9 1.4 2.5 2.7 5-0.3-2.8-0.2-5.7 0-2.9 0.3-5.7 0.4-2.9 1.1-5.7 0.7-2.8 1.7-5.5c2.8-6.7 8-12.4 12.6-18.2 5.6-6.9 16.9-3.9 17.8 4.9q0.1 0.2 0.1 0.3-1.1 0.6-2 1.2c-0.9 0.6-1.5 1.4-1.9 2.3-0.3 0.9-0.4 1.9-0.2 2.9 0.2 0.9 0.7 1.8 1.4 2.5 0.8 0.7 1.7 1.1 2.6 1.2l0.1 0.1q0 0.9-0.2 1.8-0.1 0.9-0.3 1.8-0.1 0.9-0.3 1.9-0.2 0.9-0.4 1.8-1.4 5-3.7 9.6-2.3 4.6-5.6 8.7-3.2 4.1-7.2 7.4-4 3.3-8.5 5.7-0.6 0.3-1.2 0.6 0.7 2 1.3 3.9 0.6 2 1.1 4 0.6 2 1.1 4 0.5 2 0.9 4 0.3 1.8 0.6 3.6 0.4 1.8 0.6 3.6 0.3 1.8 0.5 3.6 0.2 1.8 0.3 3.6 0.2 2.3 0.3 4.6 0 2.3 0 4.6 0 2.3-0.1 4.6-0.1 2.3-0.3 4.5l0.1-0.2q0.4-2.5 1.4-4.9 0.9-2.4 2.2-4.6 1.3-2.2 2.9-4.2 1.7-1.9 3.7-3.6c7.9-6.4 19-8.8 27.5-14 0.9-0.6 1.9-0.9 3-0.9 1.1 0 2.1 0.3 3 0.9 0.9 0.5 1.7 1.4 2.1 2.3 0.5 1 0.6 2.1 0.5 3.1q0 0.2 0 0.3-0.5 0.2-1 0.4-0.5 0.2-0.9 0.4-0.5 0.2-0.9 0.5-0.5 0.2-0.9 0.4-1.1 0.6-2 1.3c-0.9 0.5-1.5 1.3-1.9 2.2-0.3 0.9-0.4 1.9-0.2 2.9 0.2 1 0.7 1.8 1.4 2.5 0.8 0.7 1.7 1.1 2.6 1.3h0.1q0.1 0 0.2 0-0.8 2-1.7 3.8-1 1.9-2.1 3.7-1.2 1.7-2.4 3.4-1.3 1.6-2.7 3.2-3.5 3.8-7.7 6.7-4.2 3-8.9 5.1-4.7 2-9.7 3.1-5 1.1-10.2 1.1-0.7 3-1.5 6-0.9 3-1.9 5.9-1 3-2.2 5.8-1.1 2.9-2.4 5.7h-28.7q-0.2-0.4-0.3-0.9 1 0 2 0 1 0 2 0 1-0.1 2-0.2 1-0.1 1.9-0.3-3.2-3.9-6.3-7.9-0.1 0-0.1 0 0 0 0 0 0-0.1 0-0.1-0.1 0-0.1 0-1.6-2-3.2-4-0.1-1.6 0-3.1 0.1-1.5 0.3-3 0.2-1.6 0.4-3.1 0.3-1.5 0.7-3z"/><path class="b" d="m918 728c0.7 0.1 1.4-0.1 2.1-0.5 0.6-0.4 1.1-1 1.4-1.7 0.3-0.7 0.3-1.4 0.2-2.2-0.2-0.7-0.6-1.3-1.1-1.8-0.1-0.4-0.2-0.7-0.3-1q0.1-0.1 0.1-0.3c0.8-1.7 2-3.2 3.6-4.3 1.6-1 3.5-1.6 5.4-1.6 1.9 0 3.8 0.6 5.4 1.7 1.6 1 2.8 2.5 3.5 4.3 3 7.1 6.7 14.1 7.6 21.6q0.2 1.2 0.2 2.4 0 1.3 0 2.5-0.1 1.3-0.2 2.5-0.2 1.2-0.5 2.4 2.6-5.6 4.5-11.4 2-5.9 3.3-11.9 1.3-6 2-12.2 0.7-6.1 0.7-12.3 0-1.5-0.1-3.1 0-1.5-0.1-3.1-0.1-1.5-0.2-3.1-0.1-1.5-0.3-3-0.6-5.1-1.6-10.1-1.4-6.7-3.5-13.3-2.2-6.5-5.1-12.7-2.9-6.3-6.6-12.1-3.6-5.9-7.9-11.2-2.1-1.2-3.9-2.6-1.9-1.4-3.6-3.1-1.6-1.7-3-3.7-1.3-1.9-2.4-4-0.4-0.8-0.7-1.6-0.3-0.7-0.6-1.6-0.2-0.8-0.5-1.6-0.2-0.8-0.3-1.7 0.9 0.2 1.9 0.2 0.3 0 0.6 0c0.7 0.1 1.4-0.1 2-0.4 0.6-0.4 1.1-0.9 1.4-1.5 0.3-0.6 0.4-1.3 0.4-2-0.1-0.7-0.4-1.4-0.8-1.9q-0.4-0.5-0.8-1-0.7-0.8-1.3-1.5 0 0 0-0.1 0 0 0 0-0.1 0-0.1 0 0-0.1 0-0.1-0.7-0.8-1.4-1.7 0.3-0.5 0.7-1 0.4-0.4 0.8-0.9 0.4-0.4 0.9-0.7 0.5-0.4 1-0.7c4.7-2.8 11.2-0.9 14.7 3.4 3.4 4.3 4.1 10.3 2.9 15.7q-0.5 1.7-1.1 3.4-0.5 1.6-1.3 3.2-0.7 1.6-1.5 3.2-0.9 1.5-1.9 3 0.4 0.5 0.8 1 1.8 2.2 3.4 4.6 1.7 2.3 3.2 4.8 1.5 2.4 2.9 4.9 1.4 2.5 2.7 5-0.3-2.8-0.2-5.7 0-2.9 0.3-5.7 0.4-2.9 1.1-5.7 0.7-2.8 1.7-5.5c2.8-6.7 8-12.4 12.6-18.2 5.6-6.9 16.9-3.9 17.8 4.9q0.1 0.2 0.1 0.3-1.1 0.6-2 1.2c-0.9 0.6-1.5 1.4-1.9 2.3-0.3 0.9-0.4 1.9-0.2 2.9 0.2 0.9 0.7 1.8 1.4 2.5 0.8 0.7 1.7 1.1 2.6 1.2l0.1 0.1q0 0.9-0.2 1.8-0.1 0.9-0.3 1.8-0.1 0.9-0.3 1.9-0.2 0.9-0.4 1.8-1.4 5-3.7 9.6-2.3 4.6-5.6 8.7-3.2 4.1-7.2 7.4-4 3.3-8.5 5.7-0.6 0.3-1.2 0.6 1.3 3.7 2.3 7.4 1.1 3.8 1.9 7.6 0.8 3.8 1.3 7.6 0.6 3.9 0.9 7.7 0.2 2.3 0.3 4.6 0 2.3 0 4.6 0 2.3-0.1 4.6-0.1 2.3-0.3 4.5l0.1-0.2q0.4-2.5 1.4-4.9 0.9-2.4 2.2-4.6 1.3-2.2 2.9-4.2 1.7-1.9 3.7-3.6c7.9-6.4 19-8.8 27.5-14 0.9-0.6 1.9-0.9 3-0.9 1.1 0 2.1 0.3 3 0.9 0.9 0.5 1.7 1.4 2.1 2.3 0.5 1 0.6 2.1 0.5 3.1q0 0.2 0 0.3-0.5 0.2-1 0.4-0.5 0.2-0.9 0.4-0.5 0.2-0.9 0.5-0.5 0.2-0.9 0.4-1.1 0.6-2 1.3c-0.9 0.5-1.5 1.3-1.9 2.2-0.3 0.9-0.4 1.9-0.2 2.9 0.2 1 0.7 1.8 1.4 2.5 0.8 0.7 1.7 1.1 2.6 1.3h0.1q0.1 0 0.2 0-0.8 2-1.7 3.8-1 1.9-2.1 3.7-1.2 1.7-2.4 3.4-1.3 1.6-2.7 3.2-3.5 3.8-7.7 6.7-4.2 3-8.9 5.1-4.7 2-9.7 3.1-5 1.1-10.2 1.1-0.7 3-1.5 6-0.9 3-1.9 5.9-1 3-2.2 5.8-1.1 2.9-2.4 5.7h-28.7q-0.2-0.4-0.3-0.9 1 0 2 0 1 0 2 0 1-0.1 2-0.2 1-0.1 1.9-0.3-3.2-3.9-6.3-7.9-0.1 0-0.1 0 0 0 0 0 0-0.1 0-0.1-0.1 0-0.1 0-1.6-2-3.2-4-0.1-1.6 0-3.1 0.1-1.5 0.3-3 0.2-1.6 0.4-3.1 0.3-1.5 0.7-3z"/><path class="b" d="m577 645c0.7 0.1 1.4-0.1 2.1-0.5 0.6-0.4 1.1-1 1.4-1.7 0.3-0.7 0.3-1.4 0.2-2.2-0.2-0.7-0.6-1.3-1.1-1.8-0.1-0.4-0.2-0.7-0.3-1q0.1-0.1 0.1-0.3c0.8-1.7 2-3.2 3.6-4.3 1.6-1 3.5-1.6 5.4-1.6 1.9 0 3.8 0.6 5.4 1.7 1.6 1 2.8 2.5 3.5 4.3 3 7.1 6.7 14.1 7.6 21.6q0.2 1.2 0.2 2.4 0 1.3 0 2.5-0.1 1.3-0.2 2.5-0.2 1.2-0.5 2.4 2.6-5.6 4.5-11.4 2-5.9 3.3-11.9 1.3-6 2-12.2 0.7-6.1 0.7-12.3 0-1.5-0.1-3.1 0-1.5-0.1-3.1-0.1-1.5-0.2-3.1-0.1-1.5-0.3-3-0.6-5.1-1.6-10.1-1.4-6.7-3.5-13.3-2.2-6.5-5.1-12.7-2.9-6.3-6.6-12.1-3.6-5.9-7.9-11.2-2.1-1.2-3.9-2.6-1.9-1.4-3.6-3.1-1.6-1.7-3-3.7-1.3-1.9-2.4-4-0.4-0.8-0.7-1.6-0.3-0.7-0.6-1.6-0.2-0.8-0.5-1.6-0.2-0.8-0.3-1.7 0.9 0.2 1.9 0.2 0.3 0 0.6 0c0.7 0.1 1.4-0.1 2-0.4 0.6-0.4 1.1-0.9 1.4-1.5 0.3-0.6 0.4-1.3 0.4-2-0.1-0.7-0.4-1.4-0.8-1.9q-0.4-0.5-0.8-1-0.7-0.8-1.3-1.5 0 0 0-0.1 0 0 0 0-0.1 0-0.1 0 0-0.1 0-0.1-0.7-0.8-1.4-1.7 0.3-0.5 0.7-1 0.4-0.4 0.8-0.9 0.4-0.4 0.9-0.7 0.5-0.4 1-0.7c4.7-2.8 11.2-0.9 14.7 3.4 3.4 4.3 4.1 10.3 2.9 15.7q-0.5 1.7-1.1 3.4-0.5 1.6-1.3 3.2-0.7 1.6-1.5 3.2-0.9 1.5-1.9 3 0.4 0.5 0.8 1 1.8 2.2 3.4 4.6 1.7 2.3 3.2 4.8 1.5 2.4 2.9 4.9 1.4 2.5 2.7 5-0.3-2.8-0.2-5.7 0-2.9 0.3-5.7 0.4-2.9 1.1-5.7 0.7-2.8 1.7-5.5c2.8-6.7 8-12.4 12.6-18.2 5.6-6.9 16.9-3.9 17.8 4.9q0.1 0.2 0.1 0.3-1.1 0.6-2 1.2c-0.9 0.6-1.5 1.4-1.9 2.3-0.3 0.9-0.4 1.9-0.2 2.9 0.2 0.9 0.7 1.8 1.4 2.5 0.8 0.7 1.7 1.1 2.6 1.2l0.1 0.1q0 0.9-0.2 1.8-0.1 0.9-0.3 1.8-0.1 0.9-0.3 1.9-0.2 0.9-0.4 1.8-1.4 5-3.7 9.6-2.3 4.6-5.6 8.7-3.2 4.1-7.2 7.4-4 3.3-8.5 5.7-0.6 0.3-1.2 0.6 1.3 3.7 2.3 7.4 1.1 3.8 1.9 7.6 0.8 3.8 1.3 7.6 0.6 3.9 0.9 7.7 0.2 2.3 0.3 4.6 0 2.3 0 4.6 0 2.3-0.1 4.6-0.1 2.3-0.3 4.5l0.1-0.2q0.4-2.5 1.4-4.9 0.9-2.4 2.2-4.6 1.3-2.2 2.9-4.2 1.7-1.9 3.7-3.6c7.9-6.4 19-8.8 27.5-14 0.9-0.6 1.9-0.9 3-0.9 1.1 0 2.1 0.3 3 0.9 0.9 0.5 1.7 1.4 2.1 2.3 0.5 1 0.6 2.1 0.5 3.1q0 0.2 0 0.3-0.5 0.2-1 0.4-0.5 0.2-0.9 0.4-0.5 0.2-0.9 0.5-0.5 0.2-0.9 0.4-1.1 0.6-2 1.3c-0.9 0.5-1.5 1.3-1.9 2.2-0.3 0.9-0.4 1.9-0.2 2.9 0.2 1 0.7 1.9 1.4 2.5 0.8 0.7 1.7 1.1 2.6 1.3h0.1q0.1 0 0.2 0-0.8 2-1.7 3.8-1 1.9-2.1 3.7-1.2 1.7-2.4 3.4-1.3 1.6-2.7 3.2-3.5 3.8-7.7 6.7-4.2 3-8.9 5.1-4.7 2-9.7 3.1-5 1.1-10.2 1.1-0.7 3-1.5 6-0.9 3-1.9 5.9-1 3-2.2 5.8-1.1 2.9-2.4 5.7h-28.7q-0.2-0.4-0.3-0.9 1 0 2 0 1 0 2 0 1-0.1 2-0.2 1-0.1 1.9-0.3-3.2-3.9-6.3-7.9-0.1 0-0.1 0 0 0 0 0 0-0.1 0-0.1-0.1 0-0.1 0-1.6-2-3.2-4-0.1-1.6 0-3.1 0.1-1.5 0.3-3 0.2-1.6 0.4-3.1 0.3-1.5 0.7-3z"/><path fill-rule="evenodd" class="d" d="m394.7 863l12-3.5-8-49.1-17.7 5.3 13.7 47.3z"/><path class="d" d="m321 843.7q1.1 0.9 2.2 1.9 2.2 1.9 4.5 3.7 1.1 0.9 2.3 1.8v0.1l1.2 0.5 2.6-4.5 1.2-2.1 1.7-2.9 3-5.4 16.2-28.3-17-7.1-1.1 2.6-0.6 1.3-10.1 24.1-2.1 4.9-0.1 0.2-1.2 2.9-1.1 2.6-1.2 2.8z"/><path class="e" d="m232.1 721.3q1.2 2.9 2.6 5.9 2.4 5.5 5 10.8 0 0 0 0 0.5 0.6 0.9 1.1 0.5 0.5 0.9 1 0.5 0.5 1 0.9 0.5 0.5 1.1 0.9 0.1 0.1 0.2 0.2 0.4 0.3 0.8 0.6 0.4 0.2 0.8 0.5 0.4 0.3 0.9 0.5 0.4 0.2 0.9 0.4 0.6 0.3 1.3 0.6 2.4 1 4.8 1.8 4.2 1.4 8.4 2.5 0.4 0.1 0.7 0.1c11.6 2.7 23.2 3.2 35.5 2.8 6.1-0.2 12.3-0.6 18.7-1q3.2-0.2 6.4-0.4 0.2 0 0.5 0 4.6-0.3 9.3-0.5 6-0.3 12.4-0.4l-1.2 5.8q-0.4 1.7-0.9 3.3-0.4 1.7-1.1 3.3-0.6 1.6-1.3 3.1-0.7 1.5-1.6 3c-2.6 4.9-4.6 8.8-3 17.8l0.8 4.4q-0.8 1.4-1.3 3-0.4 1.6-0.5 3.3-0.1 1.6 0.3 3.2 0.3 1.7 0.9 3.2l0.3 0.5-16.7 28.2-1.1 1.8 6.1 1 7.5 1.2 12.7 2 24.1-33.9 1.2-1.6v-0.1l9.3-70.9q0.1-1 0.2-1.9 0-2.2-0.3-4.3-0.3-2.2-1.1-4.2-0.8-2-1.9-3.9-1.1-1.8-2.6-3.4-1.4-1.5-3.1-2.7-1.7-1.2-3.6-2.1-1.9-0.9-4-1.3-2-0.5-4.1-0.6l-6.4-0.1-13-0.4-9.3-0.3h-0.1l-27.2-0.7-0.7-8.1-0.3-0.2-10.6-5.9-36.5-20.3-0.1-0.1-2.4-1.3-0.4 0.4q-0.1 0.2-0.3 0.4-1.2 1.6-2.3 3.2-1.2 1.6-2.2 3.2-1.1 1.7-2 3.4-1 1.7-1.9 3.5-1.4 2.8-2.8 5.7-1.4 2.9-2.7 5.9-1.3 2.9-2.5 5.9-1.2 3-2.3 6-0.2 0.5-0.3 1h-0.1q-0.1 0.3-0.1 0.3c-1.5 3.6-1.5 8.2-0.6 13z"/><path class="e" d="m234.6 695q0.3-0.8 0.7-1.5 0.7-1.4 1.4-2.8 0.8-1.4 1.6-2.7 0.8-1.3 1.6-2.7 0.9-1.3 1.7-2.6c2.6-4 5.7-8.2 9.2-12.7q2.6-3.2 5.5-6.7 1.5-1.8 3-3.6 0.1 0 0.1-0.1 0 0 0 0 0 0 0 0 0.1-0.1 0.1-0.1l0.3-0.3 37.5 11.2v5.1l2.7 7.3-0.2 0.2q0 0 0 0v-1l1 1 9.7 12h0.1l21.6 0.6 22.3 0.6 12 0.3q2 0.1 4.1 0.6 2 0.4 3.9 1.3 1.9 0.8 3.6 2.1 1.7 1.2 3.1 2.7 1.5 1.6 2.6 3.4 1.2 1.9 1.9 3.9 0.8 2 1.1 4.2 0.4 2.1 0.3 4.3 0 0.8-0.1 1.7l6.9 28q1.5 6.3 2.6 12.6 1.1 6.4 1.7 12.8 0.6 6.5 0.7 12.9 0.1 6.5-0.3 12.9l4 27.2h-1.2l-17.4-1.2-4.6-0.3-7.7-16.1q-1.3-2.8-2.4-5.7-0.5-1.2-0.9-2.3-0.4-1.2-0.8-2.4-0.4-1.2-0.7-2.4-0.4-1.3-0.7-2.5l-13.4-54.9q-2.6 0-5.1 0-11.7 0.1-22.4-0.4c-23-1.1-42.7-4-59.9-8.9q-7.2-2.1-13.8-4.6-2.5-0.9-4.8-1.9-0.6-0.3-1.1-0.5-2.5-1.1-4.6-2.7-2.1-1.6-3.7-3.7-1.6-2.1-2.7-4.5-1.1-2.5-1.5-5.1-0.2-1.5-0.3-3 0-1.6 0.1-3.1 0.2-1.5 0.6-3 0.4-1.5 1-2.9z"/><path class="e" d="m392.3 854.9l13-3.9 2-0.6 1.9 7.9 20.4 8c1 0.4 1.8 1.1 2.4 2 0.6 0.9 0.9 2 0.8 3.1-0.1 1-0.5 2.1-1.2 2.9-0.7 0.8-1.7 1.4-2.7 1.6l-22 5.2-5.6-6.9 0.3 8.1-8.2 2-4.3-28.5z"/><path fill-rule="evenodd" class="e" d="m319.9 831.7l-1.1 1.8 0.8 0.1 0.3-1.9z"/><path class="e" d="m323.7 834.7l12 6.4 1.9 1-4.3 6.9 8.9 20c0.4 1 0.5 2.1 0.3 3.2-0.2 1-0.8 2-1.6 2.7-0.8 0.7-1.9 1.2-2.9 1.2-1.1 0.1-2.2-0.1-3.1-0.7l-19.2-11.8 0.8-8.9-5.5 6.1-7.2-4.5 17-23.1z"/><path class="d" d="m410.2 470.5c0.1 1.4-0.1 2.7-0.6 3.9-0.4 1.3-1.1 2.4-2.1 3.4-0.9 0.9-2.1 1.6-3.3 2.1-1.3 0.4-2.6 0.6-3.9 0.5l-13.3 29.5-9-14.2 14-25.9c0.3-2.2 1.5-4.2 3.2-5.6 1.7-1.4 3.9-2.2 6.2-2.1 2.2 0.1 4.3 1 6 2.6 1.6 1.5 2.6 3.6 2.8 5.8z"/><path class="f" d="m376.3 558.2l-60.9 46.6c-2.4 1.9-5.1 3.2-8.1 4-2.9 0.8-5.9 0.9-8.9 0.6-3-0.4-5.8-1.4-8.5-2.9-2.6-1.5-4.8-3.5-6.7-5.9-2-2.7-3.5-5.8-4.2-9.1-0.7-3.3-0.7-6.7 0.1-10 0.7-3.3 2.2-6.3 4.3-9 2-2.6 4.7-4.8 7.7-6.3l60.7-30.9 27.2-52.9 18.2 5.4z"/><path class="f" d="m246.5 613.6l-1.2 45.2c-17 28.8-18.9 42.7-14.2 50.2l69.9-25.6 1.2-2.8 3.6-20.2 6.6-20.9c1.2-2.1 17-15.5 2.2-40.9l-29.9-40.2-23.9-1.4c-3.9 10.1 3.2 15.6-3.9 18-16.1 14.7-13.7 17.1-10.4 38.6z"/><path class="d" d="m199 740.6c-0.6-1.2-0.8-2.5-0.8-3.8 0-1.4 0.3-2.7 0.9-3.9 0.6-1.2 1.4-2.2 2.5-3.1 1-0.8 2.2-1.4 3.5-1.7l3-32.2 13.1 10.5-4.8 28.9c0.4 2.3-0.1 4.5-1.2 6.4-1.2 1.9-3 3.4-5.2 4-2.1 0.7-4.4 0.5-6.5-0.4-2-1-3.6-2.6-4.5-4.7z"/><path class="f" d="m202.3 646.7l42.4-64c1.7-2.5 3.8-4.6 6.3-6.3 2.5-1.7 5.3-2.9 8.3-3.5 2.9-0.6 6-0.6 8.9 0 3 0.6 5.8 1.7 8.3 3.4 2.8 1.8 5.2 4.3 6.9 7.2 1.8 2.8 2.9 6.1 3.2 9.4 0.4 3.4 0 6.8-1.1 9.9-1.1 3.2-2.8 6.1-5.2 8.6l-47.3 48.9-8.4 58.9-19.1 0.9z"/><path class="e" d="m292.1 502.1c8.5 16.7 3 36-12.7 46.1-17 11-39 8.6-46.1-12.7-7.9-23.8-1.4-34 12.7-46.1 16.6-14.3 37-5.3 46.1 12.7z"/><path class="d" d="m250.5 539.2c4.3 5.7 10.7 9.4 17.7 10.3 7.1 1 14.2-0.9 19.8-5.2 5.7-4.3 9.4-10.7 10.3-17.7 1-7-0.9-14.2-5.2-19.8l-0.2-0.3c-4.4-5.5-10.8-9-17.7-9.9-7-0.8-14 1.1-19.6 5.4-5.5 4.3-9.2 10.6-10.1 17.6-1 6.9 0.8 14 5 19.6z"/><path class="e" d="m300.3 499.4q-1.6 1.6-3.4 2.9-1.8 1.3-3.7 2.4-2 1.1-4.1 2-2 0.9-4.2 1.5-0.4-0.5-0.9-1-0.5-0.5-1-0.9-0.5-0.4-1-0.8-0.6-0.4-1.2-0.7 0.3 0.6 0.5 1.1 0.3 0.6 0.5 1.2 0.1 0.7 0.3 1.3 0.1 0.6 0.2 1.2c-2.6 5.4-13.1 9.2-23.2 13.2l-13.3-23.6 17.7-10c14.1-9.8 30.8-5.6 36.8 10.2z"/><path class="e" d="m235.7 489.4c-2.4-1.1-5.5-0.4-7.7 1.1q-0.8 0.6-1.6 1.3-0.7 0.7-1.3 1.5-0.7 0.8-1.2 1.6-0.6 0.9-1 1.8-0.8 1.5-1.5 3-0.7 1.5-1.3 3.1-0.6 1.6-1 3.2-0.5 1.6-0.8 3.2c-0.8 3.8-0.7 8.4 2.8 10.4 2.8 1.7 6.9 0.6 9.5-1.6 2.6-2.2 4.1-5.3 5.3-8.3 1.3-3.1 2.5-6.2 4.8-8.7l-2.4 1.1q0.3-0.9 0.5-1.7 0.2-0.9 0.3-1.8 0.2-0.9 0.2-1.7 0.1-0.9 0.1-1.8-0.1-0.9-0.4-1.8-0.2-0.8-0.7-1.6-0.5-0.7-1.1-1.3-0.7-0.6-1.5-1z"/><path class="e" d="m266.3 492.5l-19 10.7c-2.5 1.4-4.7 3.4-6.5 5.7-1.8 2.3-3.1 4.9-3.9 7.7-0.8 2.8-1 5.7-0.7 8.6 0.4 2.9 1.3 5.7 2.8 8.3 2.1 3.7 4.8 6.9 8.1 9.6 3.3 2.7 7.1 4.8 11.1 6.1 4 1.3 8.3 1.9 12.5 1.7 4.3-0.2 8.4-1.2 12.3-3l-17.3-15.3 23.5 12 5-2.8c-25.2-4.6-30-24.4-27.9-49.3z"/></svg>