<svg version="1.2" xmlns="http://www.w3.org/2000/svg" viewBox="0 0 1120 1120" width="1120" height="1120"><style>.a{fill:#f2f2f2}.b{fill:#2f2e41}.c{fill:#f48037}.d{fill:#a8a8a8}.e{opacity:.2}.f{fill:#3f3d56}.g{opacity:.1}.h{fill:none;stroke:#2f2e41;stroke-miterlimit:10;stroke-width:2}.i{opacity:.4;fill:#f48037}.j{opacity:.8;fill:#f48037}.k{fill:#fff}</style><path fill-rule="evenodd" class="a" d="m292.6 636c-117.8 0-213-95.2-213-213 0-117.8 95.2-213 213-213 117.8 0 213 95.2 213 213 0 117.8-95.2 213-213 213z"/><path class="b" d="m0 261.1c0 77.5 48.6 140.3 108.7 140.3"/><path class="c" d="m108.7 401.4c0-78.4 54.3-141.8 121.3-141.8"/><path class="c" d="m39.4 268.2c0 73.6 31 133.2 69.3 133.2"/><path class="b" d="m108.7 401.4c0-100.2 62.7-181.2 140.2-181.2"/><path class="d" d="m85.8 402.3c0 0 15.4-0.4 20.1-3.7 4.6-3.4 23.7-7.3 24.9-2 1.1 5.3 23.1 26.4 5.7 26.5-17.4 0.2-40.4-2.7-45.1-5.5-4.6-2.8-5.6-15.3-5.6-15.3z"/><path class="e" d="m136.8 421.3c-17.4 0.1-40.4-2.7-45-5.6-3.6-2.1-5-9.8-5.5-13.4q-0.5 0-0.5 0c0 0 1 12.5 5.6 15.3 4.7 2.8 27.7 5.7 45.1 5.5 5 0 6.8-1.8 6.7-4.4-0.7 1.6-2.6 2.6-6.4 2.6z"/><path fill-rule="evenodd" class="f" d="m198.6 659.9c-103.4 0-187-11.3-187-25.4 0-14.1 83.6-25.4 187-25.4 103.4 0 187 11.3 187 25.4 0 14.1-83.6 25.4-187 25.4z"/><path fill-rule="evenodd" class="g" d="m198.6 655.9c-86.8 0-157-9.6-157-21.4 0-11.8 70.2-21.4 157-21.4 86.8 0 157 9.6 157 21.4 0 11.8-70.2 21.4-157 21.4z"/><path fill-rule="evenodd" class="f" d="m836.6 909c-156.5 0-283-17.2-283-38.5 0-21.3 126.5-38.5 283-38.5 156.5 0 283 17.2 283 38.5 0 21.3-126.5 38.5-283 38.5z"/><path fill-rule="evenodd" class="f" d="m310.6 878.6c-94 0-170-10.3-170-23.1 0-12.8 76-23.1 170-23.1 94 0 170 10.3 170 23.1 0 12.8-76 23.1-170 23.1z"/><path fill-rule="evenodd" class="h" d="m462.6 836c90 23 263-30 282-90"/><path fill-rule="evenodd" class="h" d="m309.6 469c0 0 130-36 138 80 8 116-107 149-17 172"/><path fill-rule="evenodd" class="h" d="m184 747.3c0 0 39.1-10.8 41.5 24 2.4 34.9-32.2 44.8-5.1 51.7"/><path class="b" d="m778.7 773.2l-7.9 50.3c0 0-38.8 20.6-11.5 21.2 27.3 0.6 155.7 0 155.7 0 0 0 24.9 0-14.5-21.8l-7.9-52.7z"/><path class="g" d="m753.8 844.2c6.2-5.5 17-11.3 17-11.3l7.9-50.2 113.9 0.1 7.9 49.5c9.2 5.1 14.9 9 18.2 12 5.1-1.1 10.6-5.4-18.2-21.4l-7.9-52.7-113.9 3-7.9 50.3c0 0-32.6 17.3-17 20.7z"/><path fill-rule="evenodd" class="b" d="m596.5 422.7h477.1c10 0 18.1 8.1 18.1 18v321.5c0 9.9-8.1 18-18.1 18h-477.1c-10 0-18.1-8.1-18.1-18v-321.5c0-9.9 8.1-18 18.1-18z"/><path fill-rule="evenodd" class="f" d="m595.7 441.8h478.7v267.8h-478.7z"/><path fill-rule="evenodd" class="a" d="m835.1 436.3c-1.7 0-3.1-1.3-3.1-3 0-1.7 1.4-3 3.1-3 1.6 0 3 1.3 3 3 0 1.7-1.4 3-3 3z"/><path class="b" d="m1091.7 730.8v31.4c0 2.3-0.5 4.7-1.4 6.9-0.9 2.2-2.2 4.1-3.9 5.8-1.7 1.7-3.7 3-5.9 3.9-2.1 0.9-4.5 1.4-6.9 1.4h-477.1c-2.4 0-4.7-0.5-6.9-1.4-2.2-0.9-4.2-2.2-5.9-3.9-1.7-1.7-3-3.6-3.9-5.8-0.9-2.2-1.4-4.6-1.4-6.9v-31.4z"/><path fill-rule="evenodd" class="b" d="m969 877.5v6h-326v-4.8l0.4-1.2 8.1-21.8h310.8l6.7 21.8z"/><path class="b" d="m1094.4 871.5c-0.6 2.6-2.8 5.3-7.9 7.8-18.1 9.1-55.1-2.4-55.1-2.4 0 0-28.5-4.9-28.5-17.6q0.3-0.2 0.6-0.4 0.3-0.2 0.6-0.4 0.3-0.2 0.7-0.4 0.3-0.1 0.6-0.3c7.7-4 33-14 77.9 0.4q1.3 0.4 2.4 1 1.2 0.5 2.3 1.2 1.1 0.7 2 1.6 1 0.8 1.9 1.8c1.8 2.2 3.2 4.9 2.5 7.7z"/><path class="g" d="m1094.4 871.5c-22.2 8.6-42 9.2-62.4-4.9-10.3-7.2-19.6-8.9-26.6-8.8 7.7-4 33-14 77.9 0.4q1.3 0.4 2.4 1 1.2 0.5 2.3 1.2 1.1 0.7 2 1.6 1 0.8 1.9 1.8c1.8 2.2 3.2 4.9 2.5 7.7z"/><path fill-rule="evenodd" class="a" d="m1066.5 866.6c-4.3 0-7.8-1.1-7.8-2.5 0-1.3 3.5-2.4 7.8-2.4 4.4 0 7.9 1.1 7.9 2.4 0 1.4-3.5 2.5-7.9 2.5z"/><path fill-rule="evenodd" class="a" d="m835.1 767.2c-6.4 0-11.6-5.2-11.6-11.5 0-6.4 5.2-11.5 11.6-11.5 6.3 0 11.5 5.1 11.5 11.5 0 6.3-5.2 11.5-11.5 11.5z"/><path fill-rule="evenodd" class="g" d="m969 877.5v6h-326v-4.8l0.4-1.2h325.6z"/><path fill-rule="evenodd" class="b" d="m108.6 369h208v242h-208z"/><path fill-rule="evenodd" class="f" d="m87.6 345h250v86h-250z"/><path fill-rule="evenodd" class="f" d="m87.6 447h250v86h-250z"/><path fill-rule="evenodd" class="f" d="m87.6 549h250v86h-250z"/><path fill-rule="evenodd" class="i" d="m271.6 360h16v16h-16z"/><path fill-rule="evenodd" class="j" d="m294.6 360h16v16h-16z"/><path fill-rule="evenodd" class="c" d="m317.6 360h16v16h-16z"/><path fill-rule="evenodd" class="i" d="m271.6 461h16v16h-16z"/><path fill-rule="evenodd" class="j" d="m294.6 461h16v16h-16z"/><path fill-rule="evenodd" class="c" d="m317.6 461h16v16h-16z"/><path fill-rule="evenodd" class="i" d="m271.6 562h16v16h-16z"/><path fill-rule="evenodd" class="j" d="m294.6 562h16v16h-16z"/><path fill-rule="evenodd" class="c" d="m317.6 562h16v16h-16z"/><path fill-rule="evenodd" class="b" d="m316.6 827c-43.7 0-79-35.3-79-79 0-43.7 35.3-79 79-79 43.7 0 79 35.3 79 79 0 43.7-35.3 79-79 79z"/><path fill-rule="evenodd" class="b" d="m280.6 810h24v43h-24z"/><path fill-rule="evenodd" class="b" d="m328.6 810h24v43h-24z"/><path fill-rule="evenodd" class="b" d="m300.6 861c-11.1 0-20-3.4-20-7.5 0-4.1 8.9-7.5 20-7.5 11.1 0 20 3.4 20 7.5 0 4.1-8.9 7.5-20 7.5z"/><path fill-rule="evenodd" class="b" d="m348.6 860c-11.1 0-20-3.4-20-7.5 0-4.1 8.9-7.5 20-7.5 11.1 0 20 3.4 20 7.5 0 4.1-8.9 7.5-20 7.5z"/><path fill-rule="evenodd" class="k" d="m318.6 755c-14.9 0-27-12.1-27-27 0-14.9 12.1-27 27-27 14.9 0 27 12.1 27 27 0 14.9-12.1 27-27 27z"/><path fill-rule="evenodd" class="f" d="m318.6 737c-5 0-9-4-9-9 0-5 4-9 9-9 5 0 9 4 9 9 0 5-4 9-9 9z"/><path class="c" d="m240 674.5c-6.4-28.5 14-57.4 45.5-64.4 31.6-7.1 62.3 10.4 68.7 38.9 6.3 28.6-14.6 39.1-46.1 46.2-31.5 7-61.7 7.9-68.1-20.7z"/><path fill-rule="evenodd" class="b" d="m390.7 732.2c-20.1 8.6-38.5 10.5-41.2 4.2-2.7-6.3 11.4-18.4 31.4-27 20.1-8.6 38.5-10.4 41.2-4.1 2.7 6.3-11.3 18.3-31.4 26.9z"/><path fill-rule="evenodd" class="b" d="m242.7 785.2c-20.1 8.6-38.5 10.5-41.2 4.2-2.7-6.3 11.4-18.4 31.4-27 20.1-8.6 38.5-10.4 41.2-4.1 2.7 6.3-11.3 18.3-31.4 26.9z"/><path class="k" d="m362.6 771c0 7.7-19.9 23-42 23-22.1 0-43-14.3-43-22 0-7.7 20.9-6 43-6 22.1 0 42-2.7 42 5z"/></svg>