<svg version="1.2" xmlns="http://www.w3.org/2000/svg" viewBox="0 0 983 983" width="983" height="983"><style>.a{fill:#e6e6e6}.b{fill:#3f3d56}.c{fill:#6c63ff}.d{fill:#92c7d3}.e{fill:#fff}.f{fill:#f48037}.g{fill:#ffb8b8}.h{fill:#f2f2f2}.i{fill:#2f2e41}.j{fill:#a5a58d}</style><path fill-rule="evenodd" class="a" d="m559.4 482.1c-22.1 0-40-17.9-40-40 0-22.2 17.9-40.1 40-40.1 22.2 0 40.1 17.9 40.1 40.1 0 22.1-17.9 40-40.1 40z"/><path class="b" d="m657.5 493.5l-41.8-41.8c3.2-5 5.4-10.6 6.4-16.4 1-5.9 0.8-11.9-0.5-17.6-1.4-5.8-3.8-11.3-7.3-16.1-3.5-4.8-7.9-8.8-13-11.9-4.8-2.8-10-4.7-15.4-5.6-5.5-0.9-11.1-0.8-16.5 0.3-5.4 1.1-10.5 3.2-15.2 6.2-4.6 3-8.6 6.9-11.8 11.4-6 8.4-8.9 18.6-8.2 28.8 0.8 10.3 5.1 20 12.2 27.5 7.1 7.4 16.6 12.2 26.8 13.4 10.2 1.2 20.5-1.2 29.2-6.7l41.8 41.8c1.8 1.8 4.2 2.8 6.7 2.8 2.5 0 4.9-1 6.6-2.8 1.8-1.8 2.8-4.2 2.8-6.6 0-2.5-1-4.9-2.8-6.7zm-56.7-43.4c-10.7 10.7-27.4 12.3-40 3.9-12.5-8.3-17.4-24.5-11.6-38.4 5.7-14 20.6-21.9 35.4-19 14.8 3 25.5 16 25.5 31.1q0 3.1-0.6 6.2-0.6 3-1.8 5.9-1.2 2.9-2.9 5.5-1.8 2.6-4 4.8z"/><path class="a" d="m960.8 555.2c107 118.3-203.2 288.8-453.7 288.8-250.6 0-424-132.1-453.8-288.8-72.2-379.9 615.1-621.4 453.8-288.8-235.2 484.8 369.4 195.6 453.7 288.8z"/><path class="b" d="m912.8 583.2c107 118.3-203.2 288.8-453.7 288.8-250.6 0-424-132.1-453.8-288.8-72.2-379.9 615.1-621.4 453.8-288.8-235.2 484.8 369.4 195.6 453.7 288.8z"/><path class="c" d="m149.6 305.8c-75.1-3.3-133.3-19.5-132.5-36.8 0.4-10.5 21.7-18.8 58.3-23q0.4-0.1 0.7 0.2 0.3 0.3 0.4 0.7 0 0.4-0.2 0.7-0.3 0.3-0.7 0.4c-34.5 3.9-56.1 12-56.5 21-0.7 15.8 59.1 31.7 130.6 34.8 71.5 3.2 132.4-7.4 133.1-23.1 0.4-9.1-20.6-19.1-54.8-26.1q-0.4-0.1-0.6-0.4-0.2-0.3-0.2-0.7 0.1-0.5 0.5-0.7 0.3-0.2 0.7-0.1c36.3 7.4 56.9 17.6 56.4 28-0.7 17.4-60.1 28.4-135.2 25.1z"/><path class="d" d="m82.9 308.7c6.3 12 15.6 22 27 29.2 11.4 7.2 24.5 11.3 38 11.9 13.4 0.6 26.8-2.4 38.8-8.7 11.9-6.2 22-15.5 29.3-26.8q-16.7 0.2-33.3-0.1-16.7-0.2-33.3-0.9-16.7-0.7-33.3-1.8-16.6-1.2-33.2-2.8z"/><path class="d" d="m224.3 293.2c7.6-23 4-48.2-9.8-68.1-13.7-20-36.1-32.2-60.3-33.2-24.2-0.9-47.5 9.6-62.7 28.4-15.3 18.8-20.9 43.7-15 67.2q18.3 3.1 36.7 5 18.5 1.9 37 2.7 18.5 0.7 37.1 0.2 18.5-0.5 37-2.2z"/><path fill-rule="evenodd" class="e" d="m168.8 241.6c-4.9 0-9-4-9-9 0-5 4.1-9 9-9 5 0 9 4 9 9 0 5-4 9-9 9z"/><path fill-rule="evenodd" class="e" d="m122.5 276.6c-8.3 0-15-6.7-15-15 0-8.3 6.7-15 15-15 8.3 0 15 6.7 15 15 0 8.3-6.7 15-15 15z"/><path fill-rule="evenodd" class="c" d="m348.9 261.9c-5.5 0-10-4.5-10-10 0-5.5 4.5-10 10-10 5.5 0 10 4.5 10 10 0 5.5-4.5 10-10 10z"/><path fill-rule="evenodd" class="a" d="m122.9 567.9c-3.3 0-6-2.7-6-6 0-3.3 2.7-6 6-6 3.3 0 6 2.7 6 6 0 3.3-2.7 6-6 6z"/><path fill-rule="evenodd" class="a" d="m542.9 773.9c-3.3 0-6-2.7-6-6 0-3.3 2.7-6 6-6 3.3 0 6 2.7 6 6 0 3.3-2.7 6-6 6z"/><path fill-rule="evenodd" class="a" d="m151.9 451.9c-1.7 0-3-1.3-3-3 0-1.7 1.3-3 3-3 1.7 0 3 1.3 3 3 0 1.7-1.3 3-3 3z"/><path fill-rule="evenodd" class="a" d="m399.9 675.9c-1.7 0-3-1.3-3-3 0-1.7 1.3-3 3-3 1.7 0 3 1.3 3 3 0 1.7-1.3 3-3 3z"/><path fill-rule="evenodd" class="a" d="m850.9 646.9c-1.7 0-3-1.3-3-3 0-1.7 1.3-3 3-3 1.7 0 3 1.3 3 3 0 1.7-1.3 3-3 3z"/><path fill-rule="evenodd" class="a" d="m709.9 735.9c-1.7 0-3-1.3-3-3 0-1.7 1.3-3 3-3 1.7 0 3 1.3 3 3 0 1.7-1.3 3-3 3z"/><path fill-rule="evenodd" class="a" d="m562.9 627.9c-1.7 0-3-1.3-3-3 0-1.7 1.3-3 3-3 1.7 0 3 1.3 3 3 0 1.7-1.3 3-3 3z"/><path fill-rule="evenodd" class="a" d="m372.9 331.9c-1.7 0-3-1.3-3-3 0-1.7 1.3-3 3-3 1.7 0 3 1.3 3 3 0 1.7-1.3 3-3 3z"/><path fill-rule="evenodd" class="a" d="m396.9 183.9c-1.7 0-3-1.3-3-3 0-1.7 1.3-3 3-3 1.7 0 3 1.3 3 3 0 1.7-1.3 3-3 3z"/><path fill-rule="evenodd" class="a" d="m382.9 806.9c-1.7 0-3-1.3-3-3 0-1.7 1.3-3 3-3 1.7 0 3 1.3 3 3 0 1.7-1.3 3-3 3z"/><path fill-rule="evenodd" class="a" d="m234.9 743.9c-1.7 0-3-1.3-3-3 0-1.7 1.3-3 3-3 1.7 0 3 1.3 3 3 0 1.7-1.3 3-3 3z"/><path fill-rule="evenodd" class="a" d="m703.9 635.9c-1.7 0-3-1.3-3-3 0-1.7 1.3-3 3-3 1.7 0 3 1.3 3 3 0 1.7-1.3 3-3 3z"/><path fill-rule="evenodd" class="e" d="m148.4 342.8c-5 0-9-4-9-9 0-5 4-9 9-9 5 0 9 4 9 9 0 5-4 9-9 9z"/><path class="e" d="m351.9 471.9c0 26.9-41.6 89.5-53.7 107.2q-0.6 0.9-1.4 1.3-0.9 0.5-1.9 0.5-1 0-1.9-0.5-0.8-0.4-1.4-1.3c-12.1-17.7-53.7-80.3-53.7-107.2 0-15.1 6-29.6 16.7-40.3 10.7-10.7 25.2-16.7 40.3-16.7 15.1 0 29.6 6 40.3 16.7 10.7 10.7 16.7 25.2 16.7 40.3z"/><path fill-rule="evenodd" class="f" d="m294.9 496.9c-16 0-29-13-29-29 0-16 13-29 29-29 16 0 29 13 29 29 0 16-13 29-29 29z"/><path fill-rule="evenodd" class="e" d="m294.4 611.9c-18.5 0-33.5-2.9-33.5-6.5 0-3.6 15-6.5 33.5-6.5 18.5 0 33.5 2.9 33.5 6.5 0 3.6-15 6.5-33.5 6.5z"/><path class="g" d="m816.9 426.9q-0.1 0.2-0.2 0.4-0.1 0.2-0.2 0.4-0.1 0.2-0.2 0.4 0 0.2-0.1 0.3l-47.8 13.3-8.6-8.4-14.4 11.3 13.8 16.4q0.8 1 1.9 1.7 1.1 0.7 2.4 1 1.3 0.3 2.6 0.1 1.3-0.1 2.4-0.6l51.7-22.8c3.6 2.5 8.3 2.5 11.9 0 3.6-2.4 5.3-6.9 4.2-11.1-1-4.2-4.5-7.4-8.9-7.9-4.3-0.6-8.5 1.7-10.5 5.5z"/><path class="c" d="m766.7 442.5l-17.9 14q-0.8 0.6-1.7 0.8-1 0.2-1.9 0-1-0.2-1.8-0.7-0.8-0.6-1.3-1.5l-11.1-19.7c-2-2.6-2.9-5.9-2.5-9.2 0.4-3.3 2.1-6.3 4.7-8.3 2.7-2 6-2.9 9.3-2.5 3.2 0.4 6.2 2.1 8.3 4.7l16.3 15.6q0.7 0.7 1.1 1.6 0.3 0.9 0.3 1.9-0.1 1-0.5 1.8-0.5 0.9-1.3 1.5z"/><path class="b" d="m821.4 420.3l18.2 8.2q0.6 0.3 1 0.7 0.5 0.5 0.7 1.1 0.2 0.5 0.2 1.2 0 0.6-0.3 1.2l-2.2 4.7q0.2 0.1 0.4 0.3 0.1 0.1 0.2 0.3 0.1 0.2 0.1 0.4 0 0.2-0.1 0.4l-0.9 2q-0.1 0.1-0.2 0.3-0.2 0.1-0.4 0.2-0.2 0.1-0.4 0.1-0.2 0-0.4-0.1l-0.8 1.9q0.2 0.1 0.3 0.2 0.1 0.2 0.2 0.4 0.1 0.2 0.1 0.4 0 0.2-0.1 0.4l-0.9 1.9q-0.1 0.2-0.2 0.3-0.2 0.2-0.4 0.2-0.1 0.1-0.4 0.1-0.2 0-0.4-0.1l-11.6 25.9q-0.2 0.5-0.7 1-0.5 0.4-1 0.6-0.6 0.2-1.3 0.2-0.6 0-1.1-0.3l-18.2-8.1q-0.6-0.3-1-0.7-0.5-0.5-0.7-1.1-0.2-0.6-0.2-1.2 0-0.6 0.3-1.2l18.1-40.2q0.2-0.6 0.7-1 0.4-0.4 1-0.7 0.6-0.2 1.2-0.2 0.7 0.1 1.2 0.3z"/><path class="h" d="m804.1 463.7l14.6 6.6q0.5 0.2 1.1 0.3 0.6 0 1.2-0.2 0.5-0.3 1-0.7 0.4-0.4 0.7-0.9l6.7-15 2.3-5.2 6.1-13.6q0.3-0.5 0.3-1.1 0-0.6-0.2-1.2-0.2-0.5-0.6-1-0.4-0.4-1-0.7l-4.6-2-10-4.5q-0.5-0.3-1.1-0.3-0.6 0-1.2 0.2-0.5 0.2-1 0.6-0.4 0.4-0.7 1l-5.9 13.1-6.7 14.9-2.5 5.7q-0.3 0.6-0.3 1.2 0 0.6 0.2 1.1 0.2 0.6 0.6 1 0.4 0.5 1 0.7z"/><path fill-rule="evenodd" class="g" d="m773.6 649.4h12.2l5.9-47.2h-18.1v47.2z"/><path class="i" d="m770.5 645.4h24.1c2 0 4 0.4 5.9 1.2 1.9 0.8 3.5 1.9 5 3.3 1.4 1.5 2.5 3.2 3.3 5 0.8 1.9 1.2 3.9 1.2 5.9v0.5h-39.5z"/><path fill-rule="evenodd" class="g" d="m805.6 646.4h12.2l5.9-47.2h-18.1v47.2z"/><path class="i" d="m802.5 642.4h24.1c2 0 4 0.4 5.9 1.2 1.9 0.8 3.5 1.9 5 3.3 1.4 1.5 2.5 3.2 3.3 5 0.8 1.9 1.2 3.9 1.2 5.9v0.5h-39.5z"/><path class="i" d="m718.6 538.5c1.3 3.8 3.2 7.5 5.6 10.7 2.4 3.3 5.3 6.2 8.6 8.6 3.2 2.4 6.9 4.2 10.7 5.5 3.9 1.3 7.9 1.9 12 2h0.6c6.3 0.2 13.8-1.9 21.1-4.8 14.4-5.8 28.2-15.1 31.9-17.6l-6.3 59.8-2.5 24.2q-0.1 1 0.2 1.9 0.3 0.9 1 1.6 0.6 0.7 1.5 1.1 0.8 0.4 1.8 0.4h15.5q0.8 0 1.5-0.2 0.7-0.3 1.3-0.7 0.6-0.5 1-1.1 0.4-0.6 0.6-1.4l25.6-97.6c0.8-2.9 0.9-6 0.2-9-0.6-2.9-2-5.7-3.9-8-1.9-2.3-4.4-4.2-7.2-5.3-2.7-1.2-5.8-1.7-8.8-1.5l-53.2 3.6 3.7-14.9-47.6-3.1-0.1 0.1q-1.7 1.2-3.3 2.6-1 0.8-1.9 1.7-1 0.9-1.9 1.9-0.8 0.9-1.6 2-0.9 1-1.6 2c-1.8 2.6-3.2 5.3-4.4 8.2-1.1 2.9-1.8 5.9-2.2 9-0.4 3.1-0.4 6.2-0.1 9.3 0.4 3 1.1 6.1 2.2 9z"/><path class="i" d="m718.6 538.5c1.3 3.8 3.2 7.5 5.6 10.7 2.4 3.3 5.3 6.2 8.6 8.6 3.2 2.4 6.9 4.2 10.7 5.5 3.9 1.3 7.9 1.9 12 2q2.9-1.5 5.8-3.1 2.9-1.6 5.7-3.2 2.8-1.7 5.6-3.5 2.7-1.7 5.5-3.6l-0.9 8.6-7.9 75.4q-0.1 1 0.2 1.9 0.3 0.9 1 1.6 0.6 0.7 1.5 1.1 0.8 0.4 1.8 0.4h15.5q0.8 0 1.5-0.2 0.7-0.3 1.3-0.7 0.6-0.5 1-1.1 0.4-0.6 0.6-1.4l9.1-34.8 16.5-62.8c0.8-2.9 0.9-6 0.2-9-0.6-2.9-2-5.7-3.9-8-1.9-2.3-4.4-4.2-7.2-5.3-2.7-1.2-5.8-1.7-8.8-1.5l-53.2 3.6 3.7-14.9-27-1.8c-1.8 2.6-3.2 5.3-4.4 8.2-1.1 2.9-1.8 5.9-2.2 9-0.4 3.1-0.4 6.2-0.1 9.3 0.4 3 1.1 6.1 2.2 9z"/><path class="j" d="m730 498.8h-0.3l-8.3-40.8c-0.1-0.4-6.9-35.5 13.9-53.9l0.4-2.5q0.1-1 0.6-1.8 0.6-0.9 1.4-1.4 0.8-0.5 1.8-0.7 1-0.1 2 0.2l19.5 6.1q0.9 0.2 1.5 0.8 0.7 0.5 1.1 1.3 0.5 0.7 0.6 1.6 0.1 0.9-0.1 1.7l-2 7.3c2.7 3.1 33.8 40.5 22.9 69.3l-4.8 18.9z"/><path class="g" d="m811.3 467q-0.1 0.1-0.3 0.2-0.2 0.1-0.3 0.3-0.2 0.1-0.4 0.2-0.1 0.2-0.3 0.3l-47.9-12.9-3.1-11.6-18.2 2.4 3.5 21.2q0.3 1.2 0.9 2.4 0.6 1.1 1.5 2 1 0.9 2.1 1.5 1.2 0.5 2.5 0.7l56 6.6c1.9 4 5.9 6.4 10.3 6.1 4.3-0.3 8.1-3.3 9.3-7.5 1.3-4.1-0.2-8.7-3.6-11.3-3.5-2.7-8.3-2.9-12-0.6z"/><path class="j" d="m760.3 454.9l-22.6 2.9q-0.9 0.2-1.9-0.1-0.9-0.3-1.7-1-0.7-0.6-1.1-1.5-0.4-0.9-0.3-1.9l0.4-22.7c-0.4-3.2 0.5-6.5 2.5-9.2 2.1-2.6 5-4.3 8.3-4.7 3.3-0.4 6.6 0.5 9.2 2.5 2.7 2.1 4.4 5 4.8 8.3l6.1 21.8q0.3 0.9 0.1 1.9-0.1 0.9-0.7 1.8-0.5 0.8-1.3 1.3-0.9 0.5-1.8 0.6z"/><path fill-rule="evenodd" class="g" d="m753.9 392.4c-13.6 0-24.5-11-24.5-24.6 0-13.6 10.9-24.6 24.5-24.6 13.6 0 24.6 11 24.6 24.6 0 13.6-11 24.6-24.6 24.6z"/><path class="i" d="m752.6 369.9l-3-5.6c-5.9 23.7 4.4 43.3 4.4 43.3l-39.9-18.6 0.4-6.6-4 4.5-5.7-3.1-0.7-4.3-4.3 1.1 15.6-28.4c15.2-27 37.3-16.7 37.3-16.7 35.1-1.7 30.8 33 30.8 33z"/><path fill-rule="evenodd" class="b" d="m473 552.9c-5.6 3.6-21.7-11.3-35.8-33.4-14.2-22.1-21.1-43-15.4-46.6 5.6-3.6 21.7 11.3 35.9 33.4 14.1 22.1 21 43 15.3 46.6z"/></svg>