<svg version="1.2" xmlns="http://www.w3.org/2000/svg" viewBox="0 0 875 875" width="875" height="875"><style>.a{fill:#f2f2f2}.b{fill:#e4e4e4}.c{fill:#ff6584}.d{fill:#f0f0f0}.e{fill:#9e616a}.f{fill:#2f2e41}.g{fill:#ffb6b6}.h{fill:#92c7d3}.i{fill:#3f3d56}.j{fill:#ccc}.k{fill:#e6e6e6}</style><path class="a" d="m510.1 141.8c-6.6-11-14.5-22.6-26.7-26.2-14.2-4.1-28.8 4.1-41.2 12.2q-13.9 9.1-27.5 18.5-13.6 9.5-27 19.4-13.4 9.8-26.4 20-13.1 10.2-25.9 20.8v0.4q39.9-2.8 79.7-5.5c19.2-1.3 39.1-2.8 56-11.9 6.5-3.5 12.7-8.1 20-8.4 9.1-0.4 17 6 23.2 12.6 36.7 39.1 47.4 98.9 88.6 133.2q-9.8-24-20.5-47.6-10.6-23.6-22.3-46.8-11.6-23.1-24.1-45.8-12.5-22.7-25.9-44.9z"/><path class="b" d="m735.8 473.5c-4-5.1-5.7-6.3-9.7-11.5q-48.9-63.3-92-130.8-29.2-45.9-55.6-93.6-12.5-22.6-24.3-45.6-9.2-17.9-18-35.9-2.5-5.2-5-10.4c-3.8-8.1-7.5-16.3-11.5-24.3-4.6-9.2-10.2-18.8-18.6-24.9q-1.4-1.1-3-2-1.6-0.9-3.3-1.5-1.6-0.6-3.4-1-1.7-0.4-3.5-0.6c-6.9-0.4-13.2 2.4-19.1 5.5q-16.3 8.5-32.1 18.1-15.8 9.5-30.9 20-15.2 10.4-29.7 21.8-14.5 11.3-28.3 23.5-13.9 12.2-27 25.1-13.1 12.9-25.4 26.6-12.3 13.7-23.8 28-11.5 14.4-22.1 29.4c-0.9 1.3-3 0.1-2.1-1.2q5.2-7.3 10.6-14.5 16.7-22.2 35.3-42.8 18.6-20.7 38.9-39.7 20.3-18.9 42.2-36.1 22-17.1 45.3-32.2 15.7-10.2 32-19.4c5.5-3.1 11-6.2 16.6-9.1 5.5-2.8 11.4-5.3 17.6-5.4 21.4-0.3 32.4 23.8 40 40.1q3.6 7.7 7.3 15.3 13.8 29 28.8 57.4 9.2 17.6 18.8 35 29.9 54 63.6 105.9c29.7 45.8 59.2 86.3 93.1 129.1 0.9 1.2-0.7 2.9-1.7 1.7z"/><path class="b" d="m345.7 168.4q-1.9-2.1-3.8-4.2c-9.8-10.9-20.4-21.6-33.9-27.9q-2.4-1.1-4.9-2-2.5-0.9-5.1-1.5-2.7-0.6-5.3-0.9-2.7-0.3-5.3-0.3c-7.4 0-14.6 1.9-21.4 4.6-3.3 1.3-6.4 2.8-9.5 4.3-3.6 1.8-7.1 3.7-10.5 5.6q-9.8 5.4-19.3 11.3-18.9 11.7-36.7 25.2-9.2 7-18 14.5-8.2 6.9-16.1 14.2c-1.1 1-2.8-0.7-1.6-1.7q2-1.9 4.1-3.8 6-5.4 12.1-10.5 11.1-9.5 22.9-18.1 18.2-13.6 37.7-25.2 9.8-5.9 19.8-11.2 3-1.6 6.1-3.1 1.7-0.9 3.5-1.7 1.8-0.8 3.6-1.6 1.8-0.7 3.7-1.4 1.8-0.7 3.7-1.3 2.7-0.8 5.4-1.4 2.7-0.5 5.5-0.8 2.8-0.3 5.5-0.3 2.8 0.1 5.6 0.4 2.6 0.4 5.3 1 2.6 0.7 5.1 1.5 2.6 0.9 5 2 2.5 1.2 4.8 2.5c13.3 7.4 23.6 18.9 33.6 30.1 1 1.1-0.6 2.8-1.6 1.7z"/><path class="b" d="m617.7 281.2l31.8-11.6 15.8-5.8c5.1-1.9 10.2-4 15.6-5.4q1.7-0.5 3.5-0.7 1.7-0.2 3.5-0.2 1.8 0 3.6 0.3 1.8 0.3 3.5 0.8 1.5 0.6 3 1.3 1.4 0.7 2.8 1.6 1.4 0.8 2.7 1.8 1.3 1 2.5 2.1 1.2 1.2 2.4 2.3 1.1 1.2 2.3 2.4 1.1 1.2 2.2 2.4 1.1 1.3 2.1 2.6c3.5 4.1 6.8 8.3 10.2 12.4q21.1 25.8 41.9 51.8 20.8 26 41.3 52.2 20.6 26.3 40.9 52.8 2.4 3.2 4.9 6.5c0.9 1.2 3 0 2.1-1.2q-20.5-26.8-41.2-53.3-20.7-26.6-41.8-53-21.1-26.4-42.4-52.5-5.3-6.6-10.6-13.1c-3-3.6-6-7.3-9.3-10.7-6-6.3-13.6-11.8-22.6-11.9-5.3-0.1-10.5 1.6-15.4 3.4q-8 2.9-15.9 5.8l-32.1 11.7-8 2.9c-1.4 0.5-0.8 2.8 0.7 2.3z"/><path class="a" d="m303.8 150c-16.1-8.3-36.9-6.6-51.7 3.7q10.6 1.9 21.2 4 10.5 2.2 21 4.6 10.5 2.5 21 5.2 10.4 2.8 20.7 5.8c-11.4-6.7-20.4-17.2-32.2-23.3z"/><path class="a" d="m251.9 153.7l-3.1 2.5q1.6-1.3 3.3-2.5-0.1 0-0.2 0z"/><path class="a" d="m704.8 281.3c-3.1-3.8-6.5-7.8-11.2-9.3l-4.4 0.2c8.3 14.6 17.3 28.8 27.1 42.6 9.7 13.7 20.2 26.9 31.3 39.6 11 12.7 22.8 24.8 35.1 36.3 12.3 11.5 25.2 22.3 38.6 32.5q-58.2-70.9-116.5-141.9z"/><path  d="m504.6 592.7q-0.1 0-0.1 0 0 0-0.1 0 0 0-0.1 0 0 0-0.1 0l-84.2-31q-0.4-0.1-0.6-0.5-0.2-0.4 0-0.8 0.1-0.4 0.5-0.5 0.4-0.2 0.8-0.1l84.2 31q0.4 0.1 0.6 0.4 0.1 0.3 0.1 0.7-0.1 0.4-0.4 0.6-0.3 0.2-0.6 0.2z"/><path  d="m350.6 534.7q-0.1 0-0.1 0 0 0-0.1 0 0 0-0.1 0 0 0-0.1 0l-84.2-31q-0.4-0.1-0.6-0.5-0.2-0.4 0-0.8 0.1-0.4 0.5-0.5 0.4-0.2 0.8-0.1l84.2 31q0.4 0.1 0.6 0.4 0.1 0.3 0.1 0.7-0.1 0.4-0.4 0.6-0.3 0.2-0.6 0.2z"/><path  d="m193.6 476.7q-0.1 0-0.1 0 0 0-0.1 0 0 0-0.1 0 0 0-0.1 0l-84.2-31q-0.4-0.1-0.6-0.5-0.2-0.4 0-0.8 0.1-0.4 0.5-0.5 0.4-0.2 0.8-0.1l84.2 31q0.4 0.1 0.6 0.4 0.1 0.3 0.1 0.7-0.1 0.4-0.4 0.6-0.3 0.2-0.6 0.2z"/><path class="a" d="m177.8 326.4c-3.5-0.8-7.1-1.4-10.6-1.9h-0.5c-23.3-2.8-43 6.9-45.8 22.6l-0.5 2.9c-0.3 1.8-0.6 3.7-1 5.8-0.2 1.1 0.8 2.2 2.4 2.5l560.9 125.4c39.6 8.5 79.1 17 117.3 25.1q2.7 0.6 5.4 1.2 2.7 0.5 5.4 0.9 2.7 0.5 5.4 0.8 2.8 0.4 5.5 0.6c10.9 1 18.9-0.3 24.5-3.7 6.9-4.2 8.6-11.1 10-19.1 2.8-16 5.9-32.8 8.9-49.5 2.7-14.8 5.3-29.5 7.8-43.6 1.5-8.3 2.3-15.8-2.9-22.9-5.5-7.6-17.5-13.5-35.6-17.5q-0.3-0.1-0.6-0.1c-56.6-12.4-117.6-2.6-151.9 24.5-3.9 3.1-7.7 6.5-11.4 9.9q-2 1.9-4.1 3.7-2.1 1.9-4.3 3.7-2.2 1.8-4.4 3.5-2.2 1.7-4.5 3.3-1.2 0.9-2.5 1.7-1.3 0.8-2.7 1.5-1.3 0.8-2.7 1.5-1.4 0.7-2.8 1.3-0.3 0.2-0.8 0.4-1.1 0.4-2.1 0.8-1.6 0.6-3.1 1.1-1.6 0.5-3.2 1-1.6 0.4-3.2 0.7-1.6 0.4-3.2 0.6l-0.4 0.1q-0.5 0.1-1.1 0.1-0.9 0.2-1.8 0.3-0.9 0.1-1.9 0.1-0.9 0.1-1.9 0.1-0.9 0.1-1.8 0.1c-10.8 0.3-22.6-1.7-35-5.9q-4.3-1.4-8.5-3.2-4.2-1.7-8.3-3.7-4.1-1.9-8-4.2-4-2.2-7.8-4.6c-10.8-6.9-20.6-14.7-30.1-22.3-4.2-3.3-8.5-6.7-12.9-10q-1.2-1-2.4-1.9c-5.3-3.9-10.2-7.3-14.9-10.3q-4.3-2.8-8.8-5.2-4.5-2.5-9.2-4.6-4.6-2.2-9.4-4-4.8-1.8-9.7-3.3c-13.9-4-26.6-5.1-38-3.2q-1.1 0.2-2.3 0.4-1.2 0.2-2.3 0.5-1.2 0.3-2.3 0.6-1.2 0.4-2.3 0.7c-13.9 4.6-23.9 13.8-33.6 22.6-12 11-24.4 22.4-44.6 25.2-23.3 3.3-53.8-7.1-74.7-17.8-6.5-3.4-13-7.1-19.3-10.6q-3.8-2.2-7.6-4.3c-5-2.8-9.1-5-12.9-6.9l-1.2-0.6q-1-0.6-2.1-1.1c-4.5-2.2-8.8-4.1-13.1-5.8l-1-0.4c-2-0.8-3.9-1.5-5.7-2.2l-0.8-0.2q-1.4-0.5-2.8-0.9-1.4-0.5-2.9-0.9-1.4-0.4-2.8-0.7-1.5-0.4-2.9-0.7z"/><path  d="m847 514.7q0 0-0.1 0 0 0 0 0 0 0-0.1 0 0 0 0 0l-740-156.2q-0.4-0.1-0.6-0.5-0.3-0.3-0.2-0.7 0.1-0.4 0.5-0.6 0.3-0.3 0.7-0.2l740 156.2q0.4 0.1 0.6 0.4 0.2 0.3 0.2 0.7 0 0.4-0.3 0.7-0.3 0.2-0.7 0.2z"/><path fill-rule="evenodd" class="c" d="m693.5 153c-28.2 0-51-22.8-51-51 0-28.2 22.8-51 51-51 28.2 0 51 22.8 51 51 0 28.2-22.8 51-51 51z"/><path class="d" d="m785.5 62.9c-24.7-3.4-52.9 10-59.3 34.1-1.6-4.3-4.6-8-8.4-10.5-3.8-2.5-8.3-3.7-12.9-3.5-4.6 0.3-9 2-12.5 4.8-3.6 2.9-6.1 6.9-7.3 11.3l2.8 2q19.8 4.3 40 6.4 20.1 2.1 40.4 2 20.3-0.1 40.4-2.3 20.1-2.3 39.9-6.8c-17.2-18.1-38.3-34.2-63.1-37.5z"/><path class="d" d="m679.5 130.9c-24.7-3.4-52.9 10-59.3 34.1-1.6-4.3-4.6-8-8.4-10.5-3.8-2.5-8.3-3.7-12.9-3.5-4.6 0.3-9 2-12.5 4.8-3.6 2.9-6.1 6.9-7.3 11.3l2.8 2q19.8 4.3 40 6.4 20.1 2.1 40.4 2 20.3-0.1 40.4-2.3 20.1-2.3 39.9-6.8c-17.2-18.1-38.3-34.2-63.1-37.5z"/><path class="e" d="m723.9 540.1c-1-1-1.8-2.2-2.3-3.6-0.5-1.3-0.6-2.8-0.5-4.2 0.1-1.4 0.6-2.8 1.3-4 0.7-1.2 1.7-2.3 2.8-3.1l-15.5-77.2 17.2 5.5 12.4 74.7c1.2 2 1.7 4.5 1.2 6.8-0.4 2.4-1.7 4.5-3.6 6-1.9 1.4-4.3 2.2-6.7 2-2.4-0.2-4.6-1.2-6.3-2.9z"/><path class="f" d="m700.9 376.8l10.7-8.1c0 0 9.4-0.6 11.1 16.3 1.6 17 5 50 5 50l16.3 75.4-22.5 5-17.5-81.5-10.5-24.1z"/><path fill-rule="evenodd" class="e" d="m718.5 500l-60-1-5-41h65v42z"/><path fill-rule="evenodd" class="e" d="m663 750.8h-13.8l-6.6-53.4h20.4v53.4z"/><path fill-rule="evenodd" class="e" d="m751.3 731.6l-13.9-0.1-6.2-53.4 18 4.1 2.1 49.4z"/><path fill-rule="evenodd" class="g" d="m708 422.7l3.1 8.2-0.6 8.1-61.5 21.3 3.1-35.7 6.9-8.2 49 6.3z"/><path fill-rule="evenodd" class="e" d="m681.6 349.3c-12.1 0-21.9-9.8-21.9-22 0-12.1 9.8-21.9 21.9-21.9 12.1 0 21.9 9.8 21.9 21.9 0 12.2-9.8 22-21.9 22z"/><path class="f" d="m669.2 777.1h-9.8l-1.8-9.2-4.4 9.2h-26.1c-1.3 0-2.5-0.4-3.5-1.1-1-0.7-1.7-1.8-2.1-3-0.4-1.2-0.4-2.5 0-3.6 0.5-1.2 1.2-2.2 2.3-2.9l20.8-14.4v-9.4l21.9 1.3z"/><path class="f" d="m758.5 758l-9.8-0.1-1.7-9.3-4.5 9.3-26.1-0.2c-1.2 0-2.5-0.4-3.5-1.2-1-0.7-1.7-1.8-2.1-3-0.3-1.1-0.3-2.4 0.1-3.6 0.4-1.2 1.2-2.2 2.2-2.9l21-14.2v-9.4l21.9 1.4z"/><path class="f" d="m755.6 693.6l-10.1-61.6-12-85c8.8-16.3-11-67-11-67l-2.8 0.1-63.2 12v-0.1c-12.9 35.3-17.2 52.7-16.5 90.2l2.5 135.1h-0.8c-1.3 0-2.6 0.5-3.5 1.4-0.9 1-1.5 2.2-1.5 3.6 0 1.3 0.6 2.6 1.5 3.5 0.9 0.9 2.2 1.5 3.5 1.5h25c1.4 0 2.6-0.6 3.6-1.5 0.9-0.9 1.4-2.2 1.4-3.5 0-1.4-0.5-2.6-1.4-3.6-1-0.9-2.2-1.4-3.6-1.4h-0.6l22.9-160.8 19.5 67.5 22 69c-8-2-6.8 2.6-6.8 5.3q0 1 0.4 1.9 0.4 0.9 1.1 1.6 0.7 0.7 1.6 1.1 0.9 0.4 1.9 0.4h25c1.2 0 2.3-0.4 3.2-1.2 0.9-0.7 1.5-1.8 1.8-2.9 0.2-1.1 0-2.3-0.6-3.3-0.5-1.1-1.4-1.9-2.5-2.3z"/><path class="f" d="m727.4 482.6l-2-20q-0.1-0.6-0.5-1.1-0.3-0.6-0.8-1-0.5-0.4-1.1-0.6-0.6-0.2-1.2-0.3c-0.8-9.5-4.3-50.6-4.5-52.4v-0.1l-1.6-34q-0.1-1-0.4-1.8-0.4-0.9-1.1-1.5-0.6-0.7-1.5-1.1-0.8-0.4-1.7-0.4l-8.5-0.6q0 0-0.1 0-0.1 0-0.2-0.1 0-0.1-0.1-0.1 0-0.1 0-0.2 0-1.4-0.5-2.7-0.6-1.3-1.6-2.3-1-1-2.3-1.6-1.3-0.5-2.7-0.5h-24.9q-1.2 0-2.3 0.4-1.2 0.5-2.1 1.3-0.9 0.8-1.5 1.8-0.5 1.1-0.7 2.3 0 0.1 0 0.2-0.1 0-0.1 0.1-0.1 0.1-0.2 0.1 0 0-0.1 0c-1.4 0-2.8 0.2-4.2 0.7-1.3 0.4-2.5 1.1-3.6 2-1.1 0.9-2 2-2.7 3.2-0.7 1.2-1.2 2.5-1.4 3.9-3.5 19.9-10.3 64.9-6.9 89.9 1.2 8.7-1.4 1.8-1.8 9.1q0 0.5 0 1 0.1 0.6 0.3 1.1 0.1 0.5 0.4 0.9 0.3 0.5 0.6 0.9c-2 0.6-2.8 2.8-2.3 4.9l-0.4-0.1q0.2 0.8 0.6 1.4 0.5 0.6 1.2 1 0.7 0.5 1.5 0.6 0.7 0.1 1.5-0.1l76.6-19.3c2.2-0.6 5.5 17.3 4.9 15.1z"/><path class="e" d="m643.1 540.1c1-1 1.8-2.2 2.3-3.6 0.5-1.3 0.6-2.8 0.5-4.2-0.1-1.4-0.6-2.8-1.3-4-0.7-1.2-1.7-2.3-2.8-3.1l15.5-77.2-17.2 5.5-12.4 74.7c-1.2 2-1.7 4.5-1.2 6.8 0.4 2.4 1.7 4.5 3.6 6 1.9 1.4 4.3 2.2 6.7 2 2.4-0.2 4.6-1.2 6.3-2.9z"/><path class="f" d="m666.1 376.8l-10.7-8.1c0 0-9.4-0.6-11.1 16.3-1.6 17-5 50-5 50l-16.3 75.4 22.5 5 17.5-81.5 10.5-24.1z"/><path class="f" d="m705.1 307.8c4.1 1.2 7.9-2.2 10.7-5.4l-1 1.2c6.7 4.7 10.7 12.4 13.3 20.1 2.6 7.8 4.1 15.9 7 23.6 2.9 7.6 7.7 15 14.9 18.8 9.7 5.1 21.6 2.8 31.9-0.9q0.2 0 0.4-0.1-1.6-2.9-2.8-6-1.3-3.1-2.2-6.2-1-3.2-1.6-6.5-0.6-3.2-0.9-6.5 1.6 3.1 3.5 6 1.9 2.9 4.2 5.5 2.2 2.7 4.8 5 2.5 2.4 5.3 4.5 2.6-1.2 5.1-2.4 2.4-1.3 4.9-2.6 2.4-1.4 4.7-2.8 2.4-1.5 4.7-3c4-2.7 8.2-6.1 8.7-10.9 0.4-4.7-3.1-9.1-7.3-11.3-4.1-2.3-8.9-3.1-13.5-4.5-4.5-1.3-9.2-3.6-11.6-7.7-5.5-9.4 3.8-22.8-2.1-32-2.9-4.5-8.6-6.3-13.8-7.6q-3-0.7-6.1-1.3-3-0.7-6-1.2-3.1-0.5-6.1-0.9-3.1-0.4-6.2-0.7c-7.1-0.7-14.6-1-21.4 1.3-6.9 2.3-13.1 7.7-14.5 14.8-4 2.1-8.2 4.4-10.4 8.4-2.1 4-0.9 10 3.4 11.3z"/><path class="f" d="m711.2 306.2c3.9 4.9 6 10.2 6 13.4 8.2 14.9-3.5 27.6-18.3 35.8q-2.2 1.2-4.6 2-2.4 0.8-4.9 1.3-2.4 0.4-5 0.4-2.5 0-5-0.4l-0.6-2.6-0.8 2.4c0 0-9.7 31.9-12.9 33.8 1.2-5.7 2.6-32 3.3-37.6 0.9-7.5-2.3-18.8-4.7-25.6q-0.5-1.6-0.9-3.2-0.5-1.6-0.7-3.3-0.3-1.6-0.5-3.3-0.1-1.6-0.1-3.3v-0.2l-2.3 7.3-8.3-3.5c1.5-8.9 0-19 18.6-18.1 10-6.9 18.8-7.9 26.1-6 0.9-1.4 6.3 1.3 7.9 0.5"/><path class="h" d="m732 462.2c-0.2 1.6-0.6 3.1-1.3 4.5-0.7 1.5-1.6 2.8-2.7 3.9-1.1 1.1-2.4 2-3.8 2.7-1.4 0.7-2.9 1.2-4.5 1.4l-45.1 6.1c-1.9 0.3-3.8 0.2-5.6-0.3-1.8-0.5-3.5-1.3-4.9-2.4-1.5-1.2-2.8-2.6-3.7-4.2-0.9-1.6-1.6-3.4-1.8-5.2l-6.5-48.2q-0.2-1.1-0.1-2.3 0-1.2 0.2-2.3 0.3-1.2 0.7-2.3 0.4-1.1 1-2.1l-0.3-2.4c-1.3-0.4-2.4-1.2-3.3-2.3-0.9-1.1-1.4-2.3-1.6-3.7-0.2-1.3 0-2.7 0.6-4 0.5-1.2 1.4-2.3 2.5-3.1l5.6-25.8q-0.1-0.9 0.1-1.7 0.2-0.8 0.8-1.5 0.5-0.6 1.3-1 0.7-0.4 1.6-0.4 0.8 0 1.5 0.3 0.7 0.2 1.3 0.7 0.5 0.5 0.9 1.2 0.3 0.7 0.4 1.4l0.5 3.8c0.7 5.1 3.3 9.6 7.2 12.9 3.9 3.2 8.9 4.8 14 4.4 5-0.3 9.8-2.6 13.2-6.3 3.5-3.7 5.4-8.5 5.4-13.6q0-0.4 0-0.7 0-0.3 0-0.7 0-0.3-0.1-0.6 0-0.4 0-0.7l-0.5-3.8q-0.2-0.7 0-1.5 0.2-0.8 0.6-1.4 0.5-0.7 1.1-1.1 0.7-0.5 1.4-0.7 0.9-0.1 1.7 0.1 0.8 0.2 1.4 0.6 0.7 0.5 1.1 1.2 0.4 0.7 0.6 1.5l3.2 23.8c1.8-0.1 3.5 0.4 5 1.5 1.4 1.1 2.4 2.6 2.8 4.3 0.4 1.8 0.2 3.6-0.6 5.2-0.9 1.5-2.2 2.8-3.9 3.5q1.3 0.8 2.3 1.9 1 1 1.8 2.3 0.7 1.3 1.2 2.6 0.5 1.4 0.7 2.9l6.5 48.1q0.1 0.5 0.1 0.9 0.1 0.4 0.1 0.9 0 0.4-0.1 0.9 0 0.4 0 0.8z"/><path class="i" d="m652.9 410.2q0-0.3 0.1-0.6 0-0.3 0.2-0.5 0.2-0.2 0.5-0.4 0.2-0.1 0.5-0.2l61.6-9.4c0.4-0.1 0.8 0 1.1 0.3 0.3 0.2 0.5 0.6 0.6 1 0 0.4-0.1 0.8-0.3 1.1-0.3 0.3-0.6 0.5-1 0.6l-61.6 9.4q-0.3 0-0.6 0-0.3-0.1-0.5-0.3-0.2-0.2-0.4-0.4-0.1-0.3-0.2-0.6z"/><path class="i" d="m660.1 435.5l-2-15.1q-0.1-0.8 0.1-1.7 0.2-0.8 0.7-1.5 0.6-0.7 1.3-1.2 0.8-0.4 1.7-0.5l58.8-7.5q0.8-0.2 1.7 0.1 0.8 0.2 1.5 0.7 0.7 0.5 1.2 1.3 0.4 0.8 0.5 1.6l2.1 15.1q0.1 0.8-0.1 1.7-0.3 0.8-0.8 1.5-0.5 0.7-1.3 1.2-0.7 0.4-1.6 0.5l-23.5 3.3q0 0 0 0.1 0.1 0 0.1 0.1 0 0.1 0 0.1 0 0.1 0 0.2l2.1 15.3 19.8-2.7q0.4 0 0.8 0.2 0.3 0.3 0.3 0.7 0.1 0.4-0.2 0.7-0.2 0.4-0.6 0.4l-19.8 2.7-9 1.2-18.8 2.6q-0.4 0-0.7-0.2-0.3-0.3-0.4-0.7-0.1-0.4 0.2-0.7 0.2-0.4 0.6-0.4l18.9-2.6-2.1-15.3q0-0.1 0-0.2 0 0 0-0.1 0-0.1 0-0.1 0-0.1 0-0.1l-26.5 3.1q-0.9 0.1-1.7-0.1-0.9-0.3-1.6-0.8-0.7-0.5-1.1-1.3-0.5-0.8-0.6-1.6z"/><path  d="m429 822.3q-0.1 0-0.2 0-0.1 0-0.2-0.1 0 0-0.1-0.1-0.1 0-0.2-0.1l-428-385.8q-0.3-0.2-0.3-0.6 0-0.5 0.3-0.8 0.2-0.3 0.6-0.3 0.5 0 0.8 0.3l428 385.7q0.2 0.3 0.3 0.6 0 0.3-0.1 0.6-0.1 0.2-0.3 0.4-0.3 0.2-0.6 0.2z"/><path class="j" d="m653 432.6q0.1-0.5-0.1-0.9-0.1-0.4-0.4-0.7-0.3-0.3-0.8-0.5-0.4-0.1-0.8-0.1 0 0-0.1 0 0 0-0.1 0 0 0 0 0-0.1 0-0.1 0.1l-12.7 2.8q-0.2 0.1-0.4 0.2-0.2 0.1-0.4 0.2-0.1 0.1-0.3 0.3-0.1 0.2-0.2 0.3-0.1 0-0.2 0.1 0 0-0.1 0-0.1 0-0.1 0-0.1 0-0.2 0c-0.8 0.2-1.5 0.7-1.9 1.4-0.4 0.7-0.6 1.5-0.4 2.3 0.2 0.8 0.7 1.5 1.4 1.9 0.7 0.5 1.5 0.6 2.3 0.4q0.2 0 0.3-0.1 0.2 0 0.3-0.1 0.2-0.1 0.3-0.2 0.2-0.1 0.3-0.2l4.3 12.1q0.2 0.3 0.4 0.5 0.3 0.2 0.6 0.4 0.3 0.1 0.6 0.1 0.3 0 0.6 0l8.3-1.9q0.3-0.1 0.6-0.2 0.2-0.2 0.4-0.4 0.3-0.3 0.4-0.6 0.1-0.3 0.1-0.6zm-15.8 7c-0.6 0.1-1.2 0-1.7-0.3-0.5-0.3-0.8-0.8-1-1.4-0.1-0.5 0-1.1 0.3-1.6 0.3-0.5 0.8-0.9 1.4-1q0.1 0 0.1 0 0 0.1 0 0.2 0.1 0.2 0.1 0.3 0 0.1 0.1 0.3 0 0.1 0.1 0.2l1.6 2.8q-0.1 0.1-0.3 0.1-0.1 0.1-0.2 0.2-0.1 0-0.3 0.1-0.1 0-0.2 0.1z"/><path class="k" d="m650.9 430.4c0.1 1.6-2.6 3.5-6.3 4.2-3.4 0.7-6.4 0.2-7.2-1.1q0 0 0.1 0 0.1-0.1 0.1-0.1 0.1 0 0.2 0 0-0.1 0.1-0.1l12.7-2.8q0-0.1 0.1-0.1 0 0 0 0 0.1 0 0.1 0 0.1 0 0.1 0z"/><path class="h" d="m644.3 462.4l-3.7-7.7c-2.1-4.5 1.8-9.2 8.8-10.6l8.6-1.5 3.6 25.2-0.7 0.2c-7 1.4-14.5-1.2-16.6-5.6z"/><g style="opacity:.2"><path  d="m732 462.2c-0.2 1.6-0.6 3.1-1.3 4.5-0.7 1.5-1.6 2.8-2.7 3.9-1.1 1.1-2.4 2-3.8 2.7-1.4 0.7-2.9 1.2-4.5 1.4l-45.1 6.1q-2 0.3-4 0-2-0.3-3.9-1.1-1.8-0.9-3.4-2.2-1.5-1.4-2.6-3.1 1-1.1 2.1-2.1 1.2-0.9 2.5-1.6 1.4-0.7 2.8-1 1.5-0.4 3-0.5c3.8-0.2 7.6 1.1 11.4 1.8q3.4 0.6 6.9 0.7 3.5 0 6.9-0.6 3.5-0.5 6.7-1.7 3.3-1.1 6.3-2.9c3.6-2 6.7-4.6 10.6-6.1 3.9-1.4 8.9-1.4 11.7 1.4q0.1 0.1 0.1 0.1 0.1 0.1 0.1 0.1 0 0.1 0.1 0.1 0 0.1 0.1 0.1z"/></g></svg>